<?xml version="1.0" encoding="utf-8"?>
<!-- Generator: Adobe Illustrator 22.1.0, SVG Export Plug-In . SVG Version: 6.00 Build 0)  -->
<svg version="1.1" xmlns="http://www.w3.org/2000/svg" xmlns:xlink="http://www.w3.org/1999/xlink" x="0px" y="0px"
	 viewBox="0 0 595.3 841.9" style="enable-background:new 0 0 595.3 841.9;" xml:space="preserve">
<style type="text/css">
	.st0{opacity:0.5;}
	.st1{clip-path:url(#SVGID_2_);}
	.st2{opacity:0.8;clip-path:url(#SVGID_4_);}
	.st3{clip-path:url(#SVGID_6_);}
	.st4{fill:url(#SVGID_7_);}
	.st5{opacity:0.9;fill:url(#SVGID_8_);}
	.st6{fill:url(#SVGID_9_);}
	.st7{fill:url(#SVGID_10_);}
	.st8{fill:url(#SVGID_11_);}
	.st9{fill:url(#SVGID_12_);}
	.st10{opacity:0.5;fill:url(#SVGID_13_);}
	.st11{opacity:0.6;fill:none;stroke:#000000;stroke-width:36;stroke-miterlimit:10;}
	.st12{opacity:0.6;fill:none;stroke:#000000;stroke-width:10;stroke-miterlimit:10;}
	.st13{opacity:0.8;}
	.st14{fill:#E21E26;}
	.st15{fill:#696969;}
	.st16{opacity:0.44;fill:#FFFFFF;}
	.st17{opacity:0.2;clip-path:url(#SVGID_15_);}
	.st18{opacity:0.2;clip-path:url(#SVGID_17_);}
	.st19{opacity:0.2;clip-path:url(#SVGID_19_);}
	.st20{opacity:0.81;clip-path:url(#SVGID_19_);}
	.st21{clip-path:url(#SVGID_19_);}
	.st22{fill:none;stroke:#000000;stroke-width:1.6107;stroke-miterlimit:10;}
	.st23{fill:#FFFFFF;stroke:#000000;stroke-width:1.6107;stroke-miterlimit:10;}
	.st24{opacity:0.2;clip-path:url(#SVGID_19_);fill:#FFFFFF;}
	.st25{fill:#ED1C24;}
	.st26{opacity:0.2;clip-path:url(#SVGID_21_);}
	.st27{opacity:0.81;clip-path:url(#SVGID_21_);}
	.st28{clip-path:url(#SVGID_21_);}
	.st29{clip-path:url(#SVGID_21_);fill:none;}
	.st30{opacity:0.2;clip-path:url(#SVGID_23_);}
	.st31{fill:#BDBEC0;}
	.st32{fill:none;}
	.st33{fill:#626364;}
	.st34{fill:#E01F26;}
	.st35{fill:#424143;}
	.st36{fill:#FFFFFF;}
	.st37{fill:#F04F5B;}
	.st38{fill:#0C96BF;}
	.st39{filter:url(#Adobe_OpacityMaskFilter);}
	.st40{opacity:0.75;mask:url(#SVGID_24_);}
	.st41{font-family:'Montserrat-Bold';}
	.st42{font-size:13px;}
	.st43{font-size:12px;}
	.st44{font-size:28px;}
	.st45{font-size:36px;}
	.st46{font-family:'Montserrat-Medium';}
	.st47{font-size:21px;}
	.st48{opacity:0.18;fill:#FFFFFF;}
	.st49{opacity:0.82;}
	.st50{opacity:0.2;clip-path:url(#SVGID_26_);}
	.st51{opacity:0.2;fill:#FFFFFF;}
	.st52{opacity:0.64;}
	.st53{opacity:0.2;clip-path:url(#SVGID_34_);}
	.st54{opacity:0.19;fill:#FFFFFF;}
	.st55{opacity:0.81;}
	.st56{clip-path:url(#SVGID_36_);fill:none;stroke:#000000;stroke-width:1.6107;stroke-miterlimit:10;}
	.st57{clip-path:url(#SVGID_36_);fill:#FFFFFF;stroke:#000000;stroke-width:1.6107;stroke-miterlimit:10;}
	.st58{opacity:0.2;clip-path:url(#SVGID_36_);}
	.st59{opacity:0.44;clip-path:url(#SVGID_36_);fill:#FFFFFF;}
	.st60{opacity:0.81;clip-path:url(#SVGID_36_);}
	.st61{clip-path:url(#SVGID_36_);}
	.st62{clip-path:url(#SVGID_36_);fill:none;}
	.st63{opacity:0.2;clip-path:url(#SVGID_42_);}
	.st64{opacity:0.2;clip-path:url(#SVGID_44_);}
	.st65{opacity:0.4;fill:#6D6E71;}
	.st66{fill:#E6E7E8;}
	.st67{fill:#2A282E;}
	.st68{fill-rule:evenodd;clip-rule:evenodd;fill:#2A282E;}
</style>
<g id="cover_page">
</g>
<g id="jugaad_logo">
</g>
<g id="jeff_x27_s_quote">
	<g>
		<g>
			<defs>
				<rect id="SVGID_16_" x="-615.3" y="-861.9" width="595.3" height="841.9"/>
			</defs>
			<clipPath id="SVGID_2_">
				<use xlink:href="#SVGID_16_"  style="overflow:visible;"/>
			</clipPath>
			<path style="opacity:0.2;clip-path:url(#SVGID_2_);" d="M-665.6,77.8c11.9-90.7,52.1-284.1,319.8-177s351-108.6,351-108.6V62.9
				L-665.6,77.8z"/>
		</g>
	</g>
</g>
<g id="what_is_jugaad">
	<g>
		<defs>
			<rect id="SVGID_18_" y="-861.9" width="595.3" height="841.9"/>
		</defs>
		<clipPath id="SVGID_4_">
			<use xlink:href="#SVGID_18_"  style="overflow:visible;"/>
		</clipPath>
		<path style="opacity:0.2;clip-path:url(#SVGID_4_);" d="M239.8-745.2c25.6,76.9-84.8,160.9,43.7,282
			c82.2,77.4,148.6,217.1,30.8,370.5S8.4,89.4-214.3,46.4s132.9-174,39.3-404.2s-4.4-349.9,147.5-415.4
			C124.4-838.7,211.1-831.3,239.8-745.2z"/>
	</g>
</g>
<g id="particulars">
</g>
<g id="participation">
	<g>
		<defs>
			<rect id="SVGID_22_" x="0" width="595.3" height="841.9"/>
		</defs>
		<clipPath id="SVGID_6_">
			<use xlink:href="#SVGID_22_"  style="overflow:visible;"/>
		</clipPath>
		<path style="opacity:0.2;clip-path:url(#SVGID_6_);" d="M-48.5,940.6c11.9-90.7,52.1-284.1,319.8-177s351-108.6,351-108.6v270.7
			L-48.5,940.6z"/>
	</g>
	<path class="st31" d="M53.1,565.6c0,1,0,2.1,0,3.2h1.1c0-1,0-2.1,0-3.1L53.1,565.6z"/>
	<rect x="497.2" y="568.5" class="st31" width="1.1" height="0.2"/>
	<path class="st31" d="M512.8,553.8c0,1.1,0.1,2.2,0.1,3.2l1.1,0c0-1.1,0-2.2-0.1-3.3L512.8,553.8z"/>
	<path class="st31" d="M522.2,327.9c0.7,0.8,1.4,1.6,2.1,2.5l0.8-0.7c-0.7-0.8-1.4-1.7-2.1-2.5L522.2,327.9z"/>
	<path class="st31" d="M517.9,323.1c0.7,0.8,1.5,1.6,2.2,2.4l0.8-0.7c-0.7-0.8-1.4-1.6-2.2-2.4L517.9,323.1z"/>
	<path class="st31" d="M37.8,329.5c-0.2,0.2-0.3,0.4-0.5,0.5v1.7c0.4-0.5,0.9-1,1.3-1.5L37.8,329.5z"/>
	<path class="st31" d="M48.7,317.4l0.8,0.7c0.7-0.8,1.5-1.6,2.2-2.4l-0.8-0.8C50.2,315.8,49.4,316.6,48.7,317.4z"/>
	<path class="st31" d="M53.2,312.7l0.8,0.8c0.8-0.8,1.5-1.5,2.3-2.3l-0.8-0.8C54.7,311.1,53.9,311.9,53.2,312.7z"/>
	<path class="st31" d="M44.3,322.2l0.8,0.7c0.7-0.8,1.5-1.6,2.2-2.4l-0.8-0.7C45.7,320.6,45,321.4,44.3,322.2z"/>
	<path class="st31" d="M39.9,327.1l0.8,0.7c0.7-0.8,1.4-1.6,2.1-2.4l-0.8-0.7C41.4,325.4,40.6,326.2,39.9,327.1z"/>
	<path class="st31" d="M42.7,202.7l-0.6-0.9c-0.9,0.6-1.8,1.3-2.6,1.9l0.6,0.9C40.9,204,41.8,203.3,42.7,202.7z"/>
	<path class="st31" d="M53.4,195.3l-0.6-0.9c-0.9,0.6-1.8,1.2-2.7,1.8l0.6,0.9C51.6,196.5,52.5,195.9,53.4,195.3z"/>
	<path class="st31" d="M48,199l-0.6-0.9c-0.9,0.6-1.8,1.2-2.7,1.9l0.6,0.9C46.2,200.2,47.1,199.6,48,199z"/>
	<path class="st31" d="M518.3,200.1c-0.9-0.6-1.8-1.2-2.7-1.9l-0.6,0.9c0.9,0.6,1.8,1.2,2.7,1.9L518.3,200.1z"/>
	<path class="st31" d="M523.6,203.9c-0.9-0.6-1.8-1.3-2.6-1.9l-0.6,0.9c0.9,0.6,1.8,1.3,2.6,1.9L523.6,203.9z"/>
	<path class="st31" d="M37.3,206.4v0.2c0,0,0.1-0.1,0.1-0.1L37.3,206.4z"/>
	<rect x="57.1" y="-3.5" class="st32" width="488.7" height="85.8"/>
	<rect x="50.9" y="74.6" class="st32" width="522.4" height="386"/>
	<path class="st31" d="M80.5,476.6l1.1,0.3c0.2-1,0.5-2.1,0.8-3.2l-1.1-0.3C81,474.4,80.8,475.5,80.5,476.6z"/>
	<path class="st31" d="M417.1,342c0.9,0.6,1.8,1.2,2.7,1.8l0.6-0.9c-0.9-0.6-1.8-1.2-2.7-1.8L417.1,342z"/>
	<path class="st31" d="M406,335.3c0.9,0.5,1.9,1.1,2.8,1.6l0.5-0.9c-0.9-0.5-1.9-1.1-2.8-1.6L406,335.3z"/>
	<path class="st31" d="M411.6,338.6c0.9,0.6,1.9,1.1,2.8,1.7l0.6-0.9c-0.9-0.6-1.9-1.2-2.8-1.7L411.6,338.6z"/>
	<path class="st31" d="M382.6,323.8c1,0.4,2,0.8,3,1.3l0.4-1c-1-0.4-2-0.9-3-1.3L382.6,323.8z"/>
	<path class="st31" d="M453.4,369.7l-0.8,0.8c0.8,0.8,1.5,1.5,2.3,2.3l0.8-0.8C454.9,371.3,454.2,370.5,453.4,369.7z"/>
	<path class="st31" d="M388.6,326.4c1,0.4,2,0.9,3,1.4l0.5-1c-1-0.5-2-0.9-3-1.4L388.6,326.4z"/>
	<path class="st31" d="M400.3,332.2c1,0.5,1.9,1,2.9,1.5l0.5-1c-1-0.5-1.9-1-2.9-1.5L400.3,332.2z"/>
	<path class="st31" d="M438.1,357.4c0.8,0.7,1.7,1.4,2.5,2.1l0.7-0.8c-0.8-0.7-1.7-1.4-2.5-2.1L438.1,357.4z"/>
	<path class="st31" d="M443.1,361.6c0.8,0.7,1.6,1.4,2.4,2.2l0.7-0.8c-0.8-0.7-1.6-1.5-2.4-2.2L443.1,361.6z"/>
	<path class="st31" d="M447.9,366c0.8,0.7,1.6,1.5,2.4,2.2l0.7-0.8c-0.8-0.8-1.6-1.5-2.4-2.2L447.9,366z"/>
	<path class="st31" d="M422.6,345.7c0.9,0.6,1.8,1.2,2.7,1.9l0.6-0.9c-0.9-0.6-1.8-1.3-2.7-1.9L422.6,345.7z"/>
	<path class="st31" d="M433.1,353.3c0.9,0.7,1.7,1.3,2.6,2l0.7-0.8c-0.8-0.7-1.7-1.4-2.6-2L433.1,353.3z"/>
	<path class="st31" d="M427.9,349.4c0.9,0.6,1.8,1.3,2.6,1.9l0.7-0.9c-0.9-0.7-1.7-1.3-2.6-2L427.9,349.4z"/>
	<path class="st31" d="M394.5,329.2c1,0.5,2,1,2.9,1.5l0.5-1c-1-0.5-2-1-2.9-1.5L394.5,329.2z"/>
	<path class="st31" d="M319.7,307.9c1.1,0.1,2.2,0.2,3.2,0.4l0.1-1.1c-1.1-0.1-2.2-0.2-3.2-0.4L319.7,307.9z"/>
	<path class="st31" d="M326.1,308.6c1.1,0.1,2.2,0.3,3.2,0.4l0.2-1.1c-1.1-0.2-2.2-0.3-3.2-0.4L326.1,308.6z"/>
	<path class="st31" d="M332.6,309.6c1.1,0.2,2.1,0.4,3.2,0.5l0.2-1.1c-1.1-0.2-2.2-0.4-3.2-0.5L332.6,309.6z"/>
	<path class="st31" d="M306.7,306.9c1.1,0,2.2,0.1,3.2,0.2l0.1-1.1c-1.1-0.1-2.2-0.1-3.3-0.2L306.7,306.9z"/>
	<path class="st31" d="M313.2,307.3c1.1,0.1,2.2,0.2,3.2,0.3l0.1-1.1c-1.1-0.1-2.2-0.2-3.3-0.3L313.2,307.3z"/>
	<path class="st31" d="M345.4,312c1.1,0.2,2.1,0.5,3.2,0.7l0.3-1.1c-1.1-0.3-2.1-0.5-3.2-0.7L345.4,312z"/>
	<path class="st31" d="M300.2,306.8c1.1,0,2.2,0,3.3,0.1l0-1.1c-1.1,0-2.2-0.1-3.3-0.1L300.2,306.8z"/>
	<path class="st31" d="M364.2,317.1c1,0.3,2.1,0.7,3.1,1l0.3-1c-1-0.3-2.1-0.7-3.1-1L364.2,317.1z"/>
	<path class="st31" d="M370.4,319.1c1,0.4,2.1,0.7,3.1,1.1l0.4-1c-1-0.4-2.1-0.7-3.1-1.1L370.4,319.1z"/>
	<path class="st31" d="M351.7,313.5c1,0.3,2.1,0.5,3.1,0.8l0.3-1c-1.1-0.3-2.1-0.6-3.2-0.8L351.7,313.5z"/>
	<path class="st31" d="M358,315.2c1,0.3,2.1,0.6,3.1,0.9l0.3-1c-1-0.3-2.1-0.6-3.1-0.9L358,315.2z"/>
	<path class="st31" d="M376.5,321.4c1,0.4,2,0.8,3,1.2l0.4-1c-1-0.4-2-0.8-3.1-1.2L376.5,321.4z"/>
	<path class="st31" d="M512,469.9l-1,0.3c0.3,1,0.6,2.1,0.8,3.1l1.1-0.3C512.6,472,512.3,471,512,469.9z"/>
	<path class="st31" d="M510.2,463.6l-1,0.3c0.3,1,0.6,2.1,0.9,3.1l1-0.3C510.8,465.7,510.5,464.7,510.2,463.6z"/>
	<path class="st31" d="M513.6,476.3l-1.1,0.3c0.3,1.1,0.5,2.1,0.7,3.2l1.1-0.2C514.1,478.4,513.9,477.3,513.6,476.3z"/>
	<path class="st31" d="M505,451.6c0.4,1,0.7,2,1.1,3.1l1-0.4c-0.4-1-0.7-2.1-1.1-3.1L505,451.6z"/>
	<path class="st31" d="M515.1,482.6l-1.1,0.2c0.2,1.1,0.4,2.1,0.6,3.2l1.1-0.2C515.5,484.8,515.3,483.7,515.1,482.6z"/>
	<path class="st31" d="M508.2,457.4l-1,0.3c0.3,1,0.7,2.1,1,3.1l1-0.3C508.9,459.5,508.6,458.5,508.2,457.4z"/>
	<path class="st31" d="M517.3,495.5l-1.1,0.2c0.2,1.1,0.3,2.1,0.5,3.2l1.1-0.1C517.7,497.7,517.5,496.6,517.3,495.5z"/>
	<path class="st31" d="M519.3,515l-1.1,0.1c0.1,1.1,0.1,2.2,0.2,3.2l1.1,0C519.5,517.2,519.4,516.1,519.3,515z"/>
	<path class="st31" d="M516.3,489.1l-1.1,0.2c0.2,1.1,0.4,2.1,0.5,3.2l1.1-0.2C516.7,491.2,516.5,490.1,516.3,489.1z"/>
	<path class="st31" d="M518.9,508.5l-1.1,0.1c0.1,1.1,0.2,2.2,0.3,3.2l1.1-0.1C519.1,510.7,519,509.6,518.9,508.5z"/>
	<path class="st31" d="M518.2,502l-1.1,0.1c0.1,1.1,0.2,2.2,0.4,3.2l1.1-0.1C518.4,504.2,518.3,503.1,518.2,502z"/>
	<path class="st31" d="M502.7,445.6c0.4,1,0.8,2,1.2,3l1-0.4c-0.4-1-0.8-2-1.2-3L502.7,445.6z"/>
	<path class="st31" d="M461.6,379.9c0.7,0.8,1.4,1.6,2.2,2.4l0.8-0.7c-0.7-0.8-1.4-1.6-2.2-2.4L461.6,379.9z"/>
	<path class="st31" d="M481.5,405.5c0.6,0.9,1.2,1.8,1.8,2.7l0.9-0.6c-0.6-0.9-1.2-1.8-1.8-2.7L481.5,405.5z"/>
	<path class="st31" d="M474,394.9c0.6,0.9,1.3,1.7,1.9,2.6l0.9-0.6c-0.6-0.9-1.3-1.8-1.9-2.6L474,394.9z"/>
	<path class="st31" d="M477.9,400.1c0.6,0.9,1.3,1.8,1.9,2.7l0.9-0.6c-0.6-0.9-1.2-1.8-1.9-2.7L477.9,400.1z"/>
	<path class="st31" d="M470,389.8c0.7,0.8,1.4,1.7,2,2.5l0.9-0.7c-0.7-0.9-1.3-1.7-2-2.6L470,389.8z"/>
	<path class="st31" d="M465.9,384.8c0.7,0.8,1.4,1.7,2.1,2.5l0.8-0.7c-0.7-0.8-1.4-1.7-2.1-2.5L465.9,384.8z"/>
	<path class="st31" d="M500.2,439.6c0.4,1,0.9,2,1.3,3l1-0.4c-0.4-1-0.9-2-1.3-3L500.2,439.6z"/>
	<path class="st31" d="M457.2,375.1c0.7,0.8,1.5,1.6,2.2,2.4l0.8-0.7c-0.7-0.8-1.5-1.6-2.2-2.4L457.2,375.1z"/>
	<path class="st31" d="M497.5,433.7c0.5,1,0.9,2,1.4,2.9l1-0.4c-0.4-1-0.9-2-1.4-3L497.5,433.7z"/>
	<path class="st31" d="M494.6,427.9c0.5,1,1,1.9,1.4,2.9l1-0.5c-0.5-1-1-1.9-1.5-2.9L494.6,427.9z"/>
	<path class="st31" d="M488.4,416.5c0.5,0.9,1.1,1.9,1.6,2.8l0.9-0.5c-0.5-0.9-1.1-1.9-1.6-2.8L488.4,416.5z"/>
	<path class="st31" d="M491.6,422.1c0.5,0.9,1,1.9,1.5,2.9l1-0.5c-0.5-1-1-1.9-1.5-2.9L491.6,422.1z"/>
	<path class="st31" d="M485.1,410.9c0.6,0.9,1.1,1.8,1.7,2.8l0.9-0.6c-0.6-0.9-1.1-1.9-1.7-2.8L485.1,410.9z"/>
	<path class="st31" d="M339,310.7c1.1,0.2,2.1,0.4,3.2,0.6l0.2-1.1c-1.1-0.2-2.1-0.4-3.2-0.6L339,310.7z"/>
	<path class="st31" d="M101.6,421.7l1,0.5c0.5-0.9,1.1-1.9,1.6-2.8l-0.9-0.5C102.7,419.8,102.1,420.7,101.6,421.7z"/>
	<path class="st31" d="M90.4,445.4l1,0.4c0.4-1,0.8-2,1.2-3l-1-0.4C91.3,443.3,90.8,444.4,90.4,445.4z"/>
	<path class="st31" d="M108.2,410.4l0.9,0.6c0.6-0.9,1.2-1.8,1.7-2.7l-0.9-0.6C109.4,408.5,108.8,409.5,108.2,410.4z"/>
	<path class="st31" d="M104.8,416l0.9,0.5c0.5-0.9,1.1-1.9,1.7-2.8l-0.9-0.6C106,414.1,105.4,415,104.8,416z"/>
	<path class="st31" d="M95.7,433.4l1,0.5c0.5-1,0.9-2,1.4-2.9l-1-0.5C96.6,431.4,96.1,432.4,95.7,433.4z"/>
	<path class="st31" d="M93,439.3l1,0.4c0.4-1,0.9-2,1.3-3l-1-0.4C93.9,437.3,93.4,438.3,93,439.3z"/>
	<path class="st31" d="M293.7,305.7l0,1.1c1.1,0,2.2,0,3.3,0l0-1.1C295.9,305.7,294.8,305.7,293.7,305.7z"/>
	<path class="st31" d="M111.8,404.9l0.9,0.6c0.6-0.9,1.2-1.8,1.8-2.7l-0.9-0.6C113,403.1,112.4,404,111.8,404.9z"/>
	<path class="st31" d="M131.9,379.1l0.8,0.7c0.7-0.8,1.5-1.6,2.2-2.4l-0.8-0.7C133.3,377.5,132.6,378.3,131.9,379.1z"/>
	<path class="st31" d="M123.4,389.1l0.8,0.7c0.7-0.8,1.4-1.7,2.1-2.5l-0.8-0.7C124.8,387.4,124.1,388.2,123.4,389.1z"/>
	<path class="st31" d="M127.6,384l0.8,0.7c0.7-0.8,1.4-1.6,2.1-2.5l-0.8-0.7C129,382.4,128.3,383.2,127.6,384z"/>
	<path class="st31" d="M119.4,394.2l0.9,0.7c0.7-0.9,1.3-1.7,2-2.6l-0.9-0.7C120.7,392.5,120,393.4,119.4,394.2z"/>
	<path class="st31" d="M115.5,399.5l0.9,0.6c0.6-0.9,1.3-1.8,1.9-2.6l-0.9-0.6C116.8,397.7,116.1,398.6,115.5,399.5z"/>
	<path class="st31" d="M98.6,427.5l1,0.5c0.5-1,1-1.9,1.5-2.9l-1-0.5C99.6,425.5,99.1,426.5,98.6,427.5z"/>
	<path class="st31" d="M76.8,495.8l1.1,0.2c0.2-1.1,0.3-2.2,0.5-3.2l-1.1-0.2C77.2,493.7,77,494.7,76.8,495.8z"/>
	<path class="st31" d="M76,502.3l1.1,0.1c0.1-1.1,0.3-2.2,0.4-3.2l-1.1-0.1C76.3,500.1,76.1,501.2,76,502.3z"/>
	<path class="st31" d="M74.9,515.3l1.1,0.1c0.1-1.1,0.1-2.2,0.2-3.2l-1.1-0.1C75,513.1,74.9,514.2,74.9,515.3z"/>
	<path class="st31" d="M88.1,451.5l1,0.4c0.4-1,0.8-2,1.1-3.1l-1-0.4C88.9,449.4,88.5,450.5,88.1,451.5z"/>
	<path class="st31" d="M74.6,521.8l1.1,0c0-1.1,0.1-2.2,0.1-3.3l-1.1,0C74.7,519.7,74.6,520.8,74.6,521.8z"/>
	<path class="st31" d="M75.3,508.8l1.1,0.1c0.1-1.1,0.2-2.2,0.3-3.2l-1.1-0.1C75.5,506.6,75.4,507.7,75.3,508.8z"/>
	<path class="st31" d="M83.9,463.9l1,0.3c0.3-1,0.6-2.1,1-3.1l-1-0.3C84.6,461.8,84.2,462.9,83.9,463.9z"/>
	<path class="st31" d="M85.9,457.7l1,0.3c0.3-1,0.7-2.1,1.1-3.1l-1-0.4C86.6,455.6,86.3,456.7,85.9,457.7z"/>
	<path class="st31" d="M79.1,482.9l1.1,0.2c0.2-1.1,0.4-2.1,0.7-3.2l-1.1-0.2C79.6,480.8,79.3,481.9,79.1,482.9z"/>
	<path class="st31" d="M82.1,470.2l1,0.3c0.3-1,0.6-2.1,0.9-3.1l-1-0.3C82.7,468.1,82.4,469.2,82.1,470.2z"/>
	<path class="st31" d="M77.9,489.4l1.1,0.2c0.2-1.1,0.4-2.1,0.6-3.2l-1.1-0.2C78.3,487.2,78.1,488.3,77.9,489.4z"/>
	<path class="st31" d="M136.3,374.3l0.8,0.8c0.7-0.8,1.5-1.6,2.3-2.3l-0.8-0.8C137.8,372.7,137.1,373.5,136.3,374.3z"/>
	<path class="st31" d="M248.3,311l0.2,1.1c1.1-0.2,2.1-0.5,3.2-0.7l-0.2-1.1C250.5,310.5,249.4,310.8,248.3,311z"/>
	<path class="st31" d="M229.4,316.1l0.3,1c1-0.3,2.1-0.7,3.1-1l-0.3-1C231.5,315.5,230.5,315.8,229.4,316.1z"/>
	<path class="st31" d="M242,312.5l0.3,1.1c1-0.3,2.1-0.5,3.2-0.8l-0.3-1.1C244.1,312,243,312.3,242,312.5z"/>
	<path class="st31" d="M235.7,314.2l0.3,1c1-0.3,2.1-0.6,3.1-0.9l-0.3-1C237.8,313.6,236.7,313.9,235.7,314.2z"/>
	<path class="st31" d="M211,322.9l0.4,1c1-0.4,2-0.8,3-1.2l-0.4-1C213,322.1,212,322.5,211,322.9z"/>
	<path class="st31" d="M217.1,320.5l0.4,1c1-0.4,2-0.8,3-1.1l-0.4-1C219.1,319.7,218.1,320.1,217.1,320.5z"/>
	<path class="st31" d="M223.2,318.2l0.4,1c1-0.4,2.1-0.7,3.1-1.1l-0.3-1C225.3,317.5,224.2,317.9,223.2,318.2z"/>
	<path class="st31" d="M280.6,306.3l0.1,1.1c1.1-0.1,2.2-0.2,3.2-0.2l-0.1-1.1C282.8,306.1,281.7,306.2,280.6,306.3z"/>
	<path class="st31" d="M287.2,305.9l0,1.1c1.1,0,2.2-0.1,3.2-0.1l0-1.1C289.3,305.8,288.3,305.8,287.2,305.9z"/>
	<path class="st31" d="M254.7,309.7l0.2,1.1c1.1-0.2,2.1-0.4,3.2-0.6l-0.2-1.1C256.9,309.3,255.8,309.5,254.7,309.7z"/>
	<path class="st31" d="M267.6,307.6l0.1,1.1c1.1-0.1,2.2-0.3,3.2-0.4l-0.1-1.1C269.8,307.3,268.7,307.4,267.6,307.6z"/>
	<path class="st31" d="M261.2,308.5l0.2,1.1c1.1-0.2,2.1-0.3,3.2-0.5l-0.2-1.1C263.3,308.2,262.2,308.4,261.2,308.5z"/>
	<path class="st31" d="M140.9,369.7l0.8,0.8c0.8-0.8,1.6-1.5,2.3-2.3l-0.7-0.8C142.5,368.1,141.7,368.9,140.9,369.7z"/>
	<path class="st31" d="M160.5,352.5l0.7,0.9c0.9-0.7,1.7-1.3,2.6-2l-0.7-0.9C162.3,351.1,161.4,351.8,160.5,352.5z"/>
	<path class="st31" d="M165.8,348.5l0.6,0.9c0.9-0.6,1.8-1.3,2.6-1.9l-0.6-0.9C167.5,347.2,166.6,347.9,165.8,348.5z"/>
	<path class="st31" d="M171.1,344.7l0.6,0.9c0.9-0.6,1.8-1.2,2.7-1.8l-0.6-0.9C172.9,343.5,172,344.1,171.1,344.7z"/>
	<path class="st31" d="M155.4,356.5l0.7,0.8c0.8-0.7,1.7-1.4,2.5-2.1l-0.7-0.8C157.1,355.2,156.3,355.9,155.4,356.5z"/>
	<path class="st31" d="M150.5,360.8l0.7,0.8c0.8-0.7,1.6-1.4,2.5-2.1l-0.7-0.8C152.1,359.3,151.3,360.1,150.5,360.8z"/>
	<path class="st31" d="M205.1,325.5l0.4,1c1-0.4,2-0.9,3-1.3l-0.4-1C207.1,324.6,206.1,325.1,205.1,325.5z"/>
	<path class="st31" d="M145.6,365.1l0.7,0.8c0.8-0.7,1.6-1.5,2.4-2.2l-0.7-0.8C147.2,363.7,146.4,364.4,145.6,365.1z"/>
	<path class="st31" d="M193.4,331.3l0.5,1c1-0.5,1.9-1,2.9-1.5l-0.5-1C195.3,330.2,194.3,330.7,193.4,331.3z"/>
	<path class="st31" d="M176.5,341.1l0.6,0.9c0.9-0.6,1.8-1.2,2.7-1.7l-0.6-0.9C178.3,340,177.4,340.5,176.5,341.1z"/>
	<path class="st31" d="M199.2,328.3l0.5,1c1-0.5,1.9-0.9,2.9-1.4l-0.5-1C201.1,327.3,200.2,327.8,199.2,328.3z"/>
	<path class="st31" d="M187.7,334.4l0.5,0.9c0.9-0.5,1.9-1.1,2.8-1.6l-0.5-1C189.6,333.3,188.6,333.8,187.7,334.4z"/>
	<path class="st31" d="M182,337.7l0.6,0.9c0.9-0.6,1.9-1.1,2.8-1.7l-0.5-0.9C183.9,336.6,183,337.1,182,337.7z"/>
	<path class="st31" d="M392.9,224.4c1,0.3,2.1,0.7,3.1,1l0.3-1c-1-0.3-2.1-0.7-3.1-1L392.9,224.4z"/>
	<path class="st31" d="M386.7,222.5c1,0.3,2.1,0.6,3.1,0.9l0.3-1c-1-0.3-2.1-0.6-3.1-0.9L386.7,222.5z"/>
	<path class="st31" d="M399.1,226.4c1,0.3,2.1,0.7,3.1,1.1l0.4-1c-1-0.4-2.1-0.7-3.1-1.1L399.1,226.4z"/>
	<path class="st31" d="M367.8,217.6c1.1,0.2,2.1,0.5,3.2,0.7l0.3-1.1c-1.1-0.2-2.1-0.5-3.2-0.7L367.8,217.6z"/>
	<path class="st31" d="M374.1,219.1c1,0.3,2.1,0.5,3.1,0.8l0.3-1.1c-1-0.3-2.1-0.5-3.2-0.8L374.1,219.1z"/>
	<path class="st31" d="M380.4,220.7c1,0.3,2.1,0.6,3.1,0.9l0.3-1c-1-0.3-2.1-0.6-3.1-0.9L380.4,220.7z"/>
	<path class="st31" d="M417.5,233.2c1,0.4,2,0.8,3,1.2l0.4-1c-1-0.4-2-0.8-3-1.3L417.5,233.2z"/>
	<path class="st31" d="M423.5,235.8c1,0.4,2,0.9,3,1.3l0.4-1c-1-0.4-2-0.9-3-1.3L423.5,235.8z"/>
	<path class="st31" d="M296.9,208.6l0,1.1l0.2,0c1,0,2,0,3.1,0l0-1.1c-1,0-2.1,0-3.1,0L296.9,208.6z"/>
	<path class="st31" d="M405.3,228.6c1,0.4,2,0.7,3.1,1.1l0.4-1c-1-0.4-2.1-0.8-3.1-1.1L405.3,228.6z"/>
	<path class="st31" d="M348.7,213.9c1.1,0.2,2.1,0.4,3.2,0.5l0.2-1.1c-1.1-0.2-2.2-0.4-3.2-0.5L348.7,213.9z"/>
	<path class="st31" d="M316.4,210.3c1.1,0.1,2.2,0.1,3.2,0.2l0.1-1.1c-1.1-0.1-2.2-0.1-3.3-0.2L316.4,210.3z"/>
	<path class="st31" d="M322.9,210.7c1.1,0.1,2.2,0.2,3.2,0.3l0.1-1.1c-1.1-0.1-2.2-0.2-3.2-0.3L322.9,210.7z"/>
	<path class="st31" d="M361.5,216.2c1.1,0.2,2.1,0.4,3.2,0.7l0.2-1.1c-1.1-0.2-2.1-0.5-3.2-0.7L361.5,216.2z"/>
	<path class="st31" d="M309.9,210c1.1,0,2.2,0.1,3.2,0.1l0.1-1.1c-1.1-0.1-2.2-0.1-3.3-0.1L309.9,210z"/>
	<path class="st31" d="M329.4,211.3c1.1,0.1,2.2,0.2,3.2,0.3l0.1-1.1c-1.1-0.1-2.2-0.2-3.2-0.3L329.4,211.3z"/>
	<path class="st31" d="M303.4,209.8c1.1,0,2.2,0,3.2,0.1l0-1.1c-1.1,0-2.2-0.1-3.3-0.1L303.4,209.8z"/>
	<path class="st31" d="M355.1,215c1.1,0.2,2.1,0.4,3.2,0.6l0.2-1.1c-1.1-0.2-2.1-0.4-3.2-0.6L355.1,215z"/>
	<path class="st31" d="M429.4,238.4c1,0.4,2,0.9,3,1.4l0.5-1c-1-0.5-2-0.9-3-1.4L429.4,238.4z"/>
	<path class="st31" d="M342.3,212.9c1.1,0.2,2.1,0.3,3.2,0.5l0.2-1.1c-1.1-0.2-2.2-0.3-3.2-0.5L342.3,212.9z"/>
	<path class="st31" d="M335.8,212c1.1,0.1,2.2,0.3,3.2,0.4l0.1-1.1c-1.1-0.1-2.2-0.3-3.2-0.4L335.8,212z"/>
	<path class="st31" d="M411.4,230.8c1,0.4,2,0.8,3,1.2l0.4-1c-1-0.4-2-0.8-3-1.2L411.4,230.8z"/>
	<path class="st31" d="M495.8,279.2c0.8,0.7,1.7,1.4,2.5,2l0.7-0.8c-0.8-0.7-1.7-1.4-2.5-2L495.8,279.2z"/>
	<path class="st31" d="M510.6,291.9c0.8,0.7,1.6,1.5,2.4,2.2l0.7-0.8c-0.8-0.7-1.6-1.5-2.4-2.2L510.6,291.9z"/>
	<path class="st31" d="M500.8,283.4c0.8,0.7,1.7,1.4,2.5,2.1l0.7-0.8c-0.8-0.7-1.7-1.4-2.5-2.1L500.8,283.4z"/>
	<path class="st31" d="M520.1,300.8c0.8,0.8,1.5,1.5,2.3,2.3l0.8-0.8c-0.8-0.8-1.5-1.5-2.3-2.3L520.1,300.8z"/>
	<path class="st31" d="M505.8,287.6c0.8,0.7,1.6,1.4,2.4,2.1l0.7-0.8c-0.8-0.7-1.6-1.4-2.5-2.1L505.8,287.6z"/>
	<path class="st31" d="M515.4,296.3c0.8,0.7,1.6,1.5,2.4,2.2l0.8-0.8c-0.8-0.8-1.6-1.5-2.4-2.2L515.4,296.3z"/>
	<path class="st31" d="M524.7,305.4c0.8,0.8,1.5,1.6,2.3,2.3l0.8-0.8c-0.7-0.8-1.5-1.6-2.3-2.3L524.7,305.4z"/>
	<path class="st31" d="M529.2,310.1c0.7,0.8,1.5,1.6,2.2,2.4l0.8-0.7c-0.7-0.8-1.5-1.6-2.2-2.4L529.2,310.1z"/>
	<path class="st31" d="M480.2,267.5c0.9,0.6,1.8,1.3,2.7,1.9l0.6-0.9c-0.9-0.6-1.8-1.3-2.7-1.9L480.2,267.5z"/>
	<path class="st31" d="M452.7,250.2c0.9,0.5,1.9,1.1,2.8,1.6l0.5-0.9c-0.9-0.5-1.9-1.1-2.8-1.6L452.7,250.2z"/>
	<path class="st31" d="M458.3,253.4c0.9,0.5,1.9,1.1,2.8,1.7l0.6-0.9c-0.9-0.6-1.9-1.1-2.8-1.7L458.3,253.4z"/>
	<path class="st31" d="M441.2,244.1c1,0.5,1.9,1,2.9,1.5l0.5-1c-1-0.5-1.9-1-2.9-1.5L441.2,244.1z"/>
	<path class="st31" d="M490.7,275.2c0.9,0.7,1.7,1.3,2.6,2l0.7-0.9c-0.9-0.7-1.7-1.3-2.6-2L490.7,275.2z"/>
	<path class="st31" d="M446.9,247.1c1,0.5,1.9,1,2.9,1.5l0.5-1c-0.9-0.5-1.9-1-2.9-1.6L446.9,247.1z"/>
	<path class="st31" d="M463.9,256.8c0.9,0.6,1.8,1.1,2.8,1.7l0.6-0.9c-0.9-0.6-1.9-1.2-2.8-1.7L463.9,256.8z"/>
	<path class="st31" d="M485.5,271.3c0.9,0.6,1.7,1.3,2.6,1.9l0.7-0.9c-0.9-0.7-1.7-1.3-2.6-1.9L485.5,271.3z"/>
	<path class="st31" d="M469.4,260.3c0.9,0.6,1.8,1.2,2.7,1.8l0.6-0.9c-0.9-0.6-1.8-1.2-2.7-1.8L469.4,260.3z"/>
	<path class="st31" d="M474.8,263.9c0.9,0.6,1.8,1.2,2.7,1.8l0.6-0.9c-0.9-0.6-1.8-1.2-2.7-1.8L474.8,263.9z"/>
	<path class="st31" d="M435.3,241.2c1,0.5,2,0.9,2.9,1.4l0.5-1c-1-0.5-2-1-2.9-1.4L435.3,241.2z"/>
	<path class="st31" d="M103,274.3l0.7,0.9c0.9-0.7,1.7-1.3,2.6-2l-0.7-0.9C104.8,273,103.9,273.6,103,274.3z"/>
	<path class="st31" d="M118.9,262.9l0.6,0.9c0.9-0.6,1.8-1.2,2.7-1.8l-0.6-0.9C120.7,261.7,119.8,262.3,118.9,262.9z"/>
	<path class="st31" d="M129.8,255.8l0.6,0.9c0.9-0.6,1.8-1.1,2.8-1.7l-0.6-0.9C131.7,254.7,130.8,255.3,129.8,255.8z"/>
	<path class="st31" d="M113.5,266.6l0.6,0.9c0.9-0.6,1.8-1.2,2.7-1.9l-0.6-0.9C115.3,265.3,114.4,266,113.5,266.6z"/>
	<path class="st31" d="M108.2,270.4l0.6,0.9c0.9-0.6,1.8-1.3,2.6-1.9l-0.6-0.9C110,269.1,109.1,269.7,108.2,270.4z"/>
	<path class="st31" d="M158.3,240.3l0.5,1c1-0.5,2-0.9,2.9-1.4l-0.5-1C160.3,239.3,159.3,239.8,158.3,240.3z"/>
	<path class="st31" d="M152.5,243.1l0.5,1c1-0.5,1.9-1,2.9-1.5l-0.5-1C154.4,242.2,153.5,242.6,152.5,243.1z"/>
	<path class="st31" d="M135.4,252.5l0.5,0.9c0.9-0.5,1.9-1.1,2.8-1.6l-0.5-0.9C137.3,251.4,136.3,251.9,135.4,252.5z"/>
	<path class="st31" d="M146.7,246.1l0.5,1c0.9-0.5,1.9-1,2.9-1.5l-0.5-1C148.7,245.1,147.7,245.6,146.7,246.1z"/>
	<path class="st31" d="M290.4,208.7l0,1.1c1.1,0,2.2,0,3.2-0.1l0-1.1C292.6,208.7,291.5,208.7,290.4,208.7z"/>
	<path class="st31" d="M124.3,259.3l0.6,0.9c0.9-0.6,1.8-1.2,2.7-1.7l-0.6-0.9C126.2,258.1,125.2,258.7,124.3,259.3z"/>
	<path class="st31" d="M73.5,299.9l0.8,0.8c0.8-0.8,1.6-1.5,2.3-2.3l-0.8-0.8C75.1,298.3,74.3,299.1,73.5,299.9z"/>
	<path class="st31" d="M92.8,282.4l0.7,0.8c0.8-0.7,1.7-1.4,2.5-2.1l-0.7-0.8C94.5,281,93.7,281.7,92.8,282.4z"/>
	<path class="st31" d="M97.9,278.3l0.7,0.8c0.8-0.7,1.7-1.3,2.5-2l-0.7-0.9C99.6,276.9,98.7,277.6,97.9,278.3z"/>
	<path class="st31" d="M87.9,286.6l0.7,0.8c0.8-0.7,1.6-1.4,2.5-2.1l-0.7-0.8C89.5,285.2,88.7,285.9,87.9,286.6z"/>
	<path class="st31" d="M78.2,295.4l0.7,0.8c0.8-0.7,1.6-1.5,2.4-2.2l-0.7-0.8C79.8,293.9,79,294.6,78.2,295.4z"/>
	<path class="st31" d="M83,290.9l0.7,0.8c0.8-0.7,1.6-1.4,2.4-2.2l-0.7-0.8C84.6,289.5,83.8,290.2,83,290.9z"/>
	<path class="st31" d="M141,249.3l0.5,0.9c0.9-0.5,1.9-1.1,2.8-1.6l-0.5-1C142.9,248.2,142,248.7,141,249.3z"/>
	<path class="st31" d="M251.5,211.9l0.2,1.1c1.1-0.2,2.2-0.3,3.2-0.4l-0.1-1.1C253.6,211.6,252.5,211.7,251.5,211.9z"/>
	<path class="st31" d="M245,212.9l0.2,1.1c1.1-0.2,2.1-0.3,3.2-0.5l-0.2-1.1C247.2,212.5,246.1,212.7,245,212.9z"/>
	<path class="st31" d="M232.2,215.2l0.2,1.1c1.1-0.2,2.1-0.4,3.2-0.6l-0.2-1.1C234.3,214.8,233.2,215,232.2,215.2z"/>
	<path class="st31" d="M257.9,211l0.1,1.1c1.1-0.1,2.2-0.3,3.2-0.4l-0.1-1.1C260.1,210.8,259,210.9,257.9,211z"/>
	<path class="st31" d="M164.2,237.5l0.5,1c1-0.4,2-0.9,2.9-1.3l-0.4-1C166.2,236.6,165.2,237,164.2,237.5z"/>
	<path class="st31" d="M238.6,214l0.2,1.1c1.1-0.2,2.1-0.4,3.2-0.6l-0.2-1.1C240.7,213.6,239.6,213.8,238.6,214z"/>
	<path class="st31" d="M277.4,209.2l0.1,1.1c1.1-0.1,2.2-0.1,3.2-0.2l-0.1-1.1C279.6,209.1,278.5,209.2,277.4,209.2z"/>
	<path class="st31" d="M283.9,208.9l0,1.1c1.1,0,2.2-0.1,3.2-0.1l0-1.1C286.1,208.8,285,208.9,283.9,208.9z"/>
	<path class="st31" d="M270.9,209.7l0.1,1.1c1.1-0.1,2.2-0.2,3.2-0.2l-0.1-1.1C273.1,209.5,272,209.6,270.9,209.7z"/>
	<path class="st31" d="M264.4,210.3l0.1,1.1c1.1-0.1,2.2-0.2,3.2-0.3l-0.1-1.1C266.6,210.1,265.5,210.2,264.4,210.3z"/>
	<path class="st31" d="M225.8,216.6l0.2,1.1c1.1-0.2,2.1-0.5,3.2-0.7l-0.2-1.1C227.9,216.1,226.9,216.4,225.8,216.6z"/>
	<path class="st31" d="M188.3,227.6l0.4,1c1-0.4,2-0.7,3.1-1.1l-0.4-1C190.3,226.9,189.3,227.3,188.3,227.6z"/>
	<path class="st31" d="M182.2,229.9l0.4,1c1-0.4,2-0.8,3-1.2l-0.4-1C184.2,229.1,183.2,229.5,182.2,229.9z"/>
	<path class="st31" d="M176.1,232.3l0.4,1c1-0.4,2-0.8,3-1.2l-0.4-1C178.1,231.5,177.1,231.9,176.1,232.3z"/>
	<path class="st31" d="M170.1,234.8l0.4,1c1-0.4,2-0.9,3-1.3l-0.4-1C172.1,234,171.1,234.4,170.1,234.8z"/>
	<path class="st31" d="M213.2,219.8l0.3,1c1-0.3,2.1-0.6,3.1-0.8l-0.3-1C215.3,219.2,214.2,219.5,213.2,219.8z"/>
	<path class="st31" d="M219.5,218.1l0.3,1.1c1-0.3,2.1-0.5,3.2-0.8l-0.3-1.1C221.6,217.6,220.5,217.9,219.5,218.1z"/>
	<path class="st31" d="M194.5,225.5l0.3,1c1-0.3,2.1-0.7,3.1-1l-0.3-1C196.5,224.8,195.5,225.1,194.5,225.5z"/>
	<path class="st31" d="M206.9,221.5l0.3,1c1-0.3,2.1-0.6,3.1-0.9l-0.3-1C209,220.9,207.9,221.2,206.9,221.5z"/>
	<path class="st31" d="M200.6,223.4l0.3,1c1-0.3,2.1-0.6,3.1-1l-0.3-1C202.7,222.8,201.7,223.1,200.6,223.4z"/>
	<path class="st31" d="M205.2,128.3l-0.2-1.1c-1.1,0.2-2.1,0.5-3.2,0.7l0.3,1.1C203.1,128.8,204.1,128.5,205.2,128.3z"/>
	<path class="st31" d="M217.9,125.6l-0.2-1.1c-1.1,0.2-2.1,0.4-3.2,0.6l0.2,1.1C215.7,126,216.8,125.8,217.9,125.6z"/>
	<path class="st31" d="M211.5,126.9l-0.2-1.1c-1.1,0.2-2.1,0.5-3.2,0.7l0.2,1.1C209.4,127.4,210.5,127.1,211.5,126.9z"/>
	<path class="st31" d="M230.7,123.3l-0.2-1.1c-1.1,0.2-2.1,0.4-3.2,0.5l0.2,1.1C228.5,123.7,229.6,123.5,230.7,123.3z"/>
	<path class="st31" d="M224.3,124.4l-0.2-1.1c-1.1,0.2-2.1,0.4-3.2,0.6l0.2,1.1C222.1,124.8,223.2,124.6,224.3,124.4z"/>
	<path class="st31" d="M180,134.9l-0.3-1c-1,0.3-2.1,0.6-3.1,0.9l0.3,1C178,135.5,179,135.2,180,134.9z"/>
	<path class="st31" d="M186.3,133.1l-0.3-1c-1,0.3-2.1,0.6-3.1,0.9l0.3,1C184.2,133.7,185.3,133.4,186.3,133.1z"/>
	<path class="st31" d="M173.8,136.8l-0.3-1c-1,0.3-2.1,0.7-3.1,1l0.3,1C171.8,137.5,172.8,137.1,173.8,136.8z"/>
	<path class="st31" d="M198.9,129.8l-0.3-1.1c-1,0.3-2.1,0.5-3.2,0.8l0.3,1.1C196.7,130.3,197.8,130.1,198.9,129.8z"/>
	<path class="st31" d="M192.6,131.4l-0.3-1c-1,0.3-2.1,0.6-3.1,0.8l0.3,1C190.5,132,191.5,131.7,192.6,131.4z"/>
	<path class="st31" d="M237.1,122.3l-0.2-1.1c-1.1,0.2-2.2,0.3-3.2,0.5l0.2,1.1C234.9,122.6,236,122.5,237.1,122.3z"/>
	<path class="st31" d="M275.8,118.5l-0.1-1.1c-1.1,0.1-2.2,0.1-3.3,0.2l0.1,1.1C273.7,118.6,274.8,118.6,275.8,118.5z"/>
	<path class="st31" d="M282.3,118.2l0-1.1c-1.1,0-2.2,0.1-3.2,0.1l0,1.1C280.2,118.3,281.2,118.3,282.3,118.2z"/>
	<path class="st31" d="M288.8,118l0-1.1c-1.1,0-2.2,0-3.2,0.1l0,1.1C286.6,118.1,287.7,118.1,288.8,118z"/>
	<path class="st31" d="M250,120.6l-0.1-1.1c-1.1,0.1-2.2,0.3-3.2,0.4l0.1,1.1C247.8,120.9,248.9,120.8,250,120.6z"/>
	<path class="st31" d="M243.5,121.4l-0.1-1.1c-1.1,0.1-2.2,0.3-3.2,0.4l0.1,1.1C241.4,121.7,242.4,121.6,243.5,121.4z"/>
	<path class="st31" d="M269.4,118.9l-0.1-1.1c-1.1,0.1-2.2,0.1-3.2,0.2l0.1,1.1C267.2,119,268.3,119,269.4,118.9z"/>
	<path class="st31" d="M256.4,120l-0.1-1.1c-1.1,0.1-2.2,0.2-3.2,0.3l0.1,1.1C254.3,120.2,255.3,120.1,256.4,120z"/>
	<path class="st31" d="M262.9,119.4l-0.1-1.1c-1.1,0.1-2.2,0.2-3.2,0.3l0.1,1.1C260.7,119.5,261.8,119.5,262.9,119.4z"/>
	<path class="st31" d="M108,164l-0.5-1c-1,0.5-1.9,1-2.9,1.5l0.5,1C106.1,165,107.1,164.5,108,164z"/>
	<path class="st31" d="M85.5,176.7l-0.6-0.9c-0.9,0.6-1.9,1.1-2.8,1.7l0.6,0.9C83.6,177.8,84.5,177.2,85.5,176.7z"/>
	<path class="st31" d="M295.3,118l0-1.1c-1.1,0-2.2,0-3.3,0l0,1.1C293.1,118,294.2,118,295.3,118z"/>
	<path class="st31" d="M91,173.4l-0.5-0.9c-0.9,0.5-1.9,1.1-2.8,1.6l0.6,0.9C89.2,174.5,90.1,173.9,91,173.4z"/>
	<path class="st31" d="M102.3,167.1l-0.5-1c-0.9,0.5-1.9,1-2.8,1.6l0.5,1C100.4,168.1,101.4,167.6,102.3,167.1z"/>
	<path class="st31" d="M96.7,170.2l-0.5-0.9c-0.9,0.5-1.9,1.1-2.8,1.6l0.5,0.9C94.8,171.2,95.7,170.7,96.7,170.2z"/>
	<path class="st31" d="M79.9,180.1l-0.6-0.9c-0.9,0.6-1.8,1.2-2.7,1.7l0.6,0.9C78.1,181.2,79,180.7,79.9,180.1z"/>
	<path class="st31" d="M74.5,183.6l-0.6-0.9c-0.9,0.6-1.8,1.2-2.7,1.8l0.6,0.9C72.7,184.7,73.6,184.1,74.5,183.6z"/>
	<path class="st31" d="M125.5,155.5l-0.5-1c-1,0.5-2,0.9-2.9,1.4l0.5,1C123.5,156.4,124.5,155.9,125.5,155.5z"/>
	<path class="st31" d="M149.3,145.4l-0.4-1c-1,0.4-2,0.8-3,1.2l0.4,1C147.3,146.2,148.3,145.8,149.3,145.4z"/>
	<path class="st31" d="M155.4,143.1l-0.4-1c-1,0.4-2,0.8-3.1,1.1l0.4,1C153.4,143.8,154.4,143.5,155.4,143.1z"/>
	<path class="st31" d="M143.3,147.8l-0.4-1c-1,0.4-2,0.8-3,1.2l0.4,1C141.3,148.6,142.3,148.2,143.3,147.8z"/>
	<path class="st31" d="M161.5,140.9l-0.4-1c-1,0.4-2.1,0.7-3.1,1.1l0.4,1C159.5,141.6,160.5,141.2,161.5,140.9z"/>
	<path class="st31" d="M137.3,150.2l-0.4-1c-1,0.4-2,0.8-3,1.3l0.4,1C135.3,151.1,136.3,150.7,137.3,150.2z"/>
	<path class="st31" d="M119.6,158.2l-0.5-1c-1,0.5-2,0.9-2.9,1.4l0.5,1C117.7,159.2,118.6,158.7,119.6,158.2z"/>
	<path class="st31" d="M167.7,138.8l-0.3-1c-1,0.3-2.1,0.7-3.1,1l0.4,1C165.6,139.5,166.6,139.1,167.7,138.8z"/>
	<path class="st31" d="M131.4,152.8l-0.4-1c-1,0.4-2,0.9-3,1.3l0.4,1C129.4,153.7,130.4,153.2,131.4,152.8z"/>
	<path class="st31" d="M113.8,161.1l-0.5-1c-1,0.5-1.9,1-2.9,1.5l0.5,1C111.9,162.1,112.8,161.6,113.8,161.1z"/>
	<path class="st31" d="M398.4,129.4c-1-0.3-2.1-0.5-3.2-0.8l-0.3,1.1c1,0.3,2.1,0.5,3.2,0.8L398.4,129.4z"/>
	<path class="st31" d="M466.1,153.1c-1-0.4-2-0.9-3-1.3l-0.4,1c1,0.4,2,0.9,3,1.3L466.1,153.1z"/>
	<path class="st31" d="M489.6,164.6c-1-0.5-1.9-1-2.9-1.5l-0.5,1c1,0.5,1.9,1,2.9,1.5L489.6,164.6z"/>
	<path class="st31" d="M472.1,155.8c-1-0.5-2-0.9-3-1.4l-0.5,1c1,0.5,2,0.9,3,1.4L472.1,155.8z"/>
	<path class="st31" d="M483.8,161.6c-1-0.5-1.9-1-2.9-1.5l-0.5,1c1,0.5,1.9,1,2.9,1.5L483.8,161.6z"/>
	<path class="st31" d="M478,158.6c-1-0.5-2-1-2.9-1.4l-0.5,1c1,0.5,2,0.9,2.9,1.4L478,158.6z"/>
	<path class="st31" d="M460.2,150.4c-1-0.4-2-0.9-3-1.3l-0.4,1c1,0.4,2,0.9,3,1.3L460.2,150.4z"/>
	<path class="st31" d="M442,143.1c-1-0.4-2-0.8-3.1-1.1l-0.4,1c1,0.4,2,0.8,3.1,1.1L442,143.1z"/>
	<path class="st31" d="M435.9,140.9c-1-0.4-2.1-0.7-3.1-1.1l-0.4,1c1,0.4,2.1,0.7,3.1,1.1L435.9,140.9z"/>
	<path class="st31" d="M454.1,147.9c-1-0.4-2-0.8-3-1.2l-0.4,1c1,0.4,2,0.8,3,1.2L454.1,147.9z"/>
	<path class="st31" d="M448.1,145.5c-1-0.4-2-0.8-3-1.2l-0.4,1c1,0.4,2,0.8,3,1.2L448.1,145.5z"/>
	<path class="st31" d="M512.2,177.5c-0.9-0.6-1.9-1.1-2.8-1.7l-0.6,0.9c0.9,0.6,1.9,1.1,2.8,1.7L512.2,177.5z"/>
	<path class="st31" d="M523.2,184.5c-0.9-0.6-1.8-1.2-2.7-1.8l-0.6,0.9c0.9,0.6,1.8,1.2,2.7,1.8L523.2,184.5z"/>
	<path class="st31" d="M528.7,188.2c-0.9-0.6-1.8-1.2-2.7-1.8l-0.6,0.9c0.9,0.6,1.8,1.2,2.7,1.8L528.7,188.2z"/>
	<path class="st31" d="M517.8,181c-0.9-0.6-1.8-1.2-2.8-1.7l-0.6,0.9c0.9,0.6,1.8,1.2,2.8,1.7L517.8,181z"/>
	<path class="st31" d="M501,170.9c-0.9-0.5-1.9-1.1-2.8-1.6l-0.5,0.9c0.9,0.5,1.9,1.1,2.8,1.6L501,170.9z"/>
	<path class="st31" d="M506.7,174.2c-0.9-0.6-1.9-1.1-2.8-1.7l-0.5,0.9c0.9,0.5,1.9,1.1,2.8,1.6L506.7,174.2z"/>
	<path class="st31" d="M301.8,116.9c-1.1,0-2.2,0-3.3,0l0,1.1c1.1,0,2.2,0,3.2,0L301.8,116.9z"/>
	<path class="st31" d="M495.3,167.7c-0.9-0.5-1.9-1-2.9-1.6l-0.5,1c1,0.5,1.9,1,2.9,1.6L495.3,167.7z"/>
	<path class="st31" d="M429.7,138.7c-1-0.3-2.1-0.7-3.1-1l-0.3,1c1,0.3,2.1,0.7,3.1,1L429.7,138.7z"/>
	<path class="st31" d="M340.8,119.2c-1.1-0.1-2.2-0.2-3.2-0.3l-0.1,1.1c1.1,0.1,2.2,0.2,3.2,0.3L340.8,119.2z"/>
	<path class="st31" d="M334.3,118.5c-1.1-0.1-2.2-0.2-3.2-0.3l-0.1,1.1c1.1,0.1,2.2,0.2,3.2,0.3L334.3,118.5z"/>
	<path class="st31" d="M347.2,119.9c-1.1-0.1-2.2-0.3-3.2-0.4l-0.1,1.1c1.1,0.1,2.2,0.2,3.2,0.4L347.2,119.9z"/>
	<path class="st31" d="M360.1,121.7c-1.1-0.2-2.2-0.3-3.2-0.5l-0.2,1.1c1.1,0.2,2.1,0.3,3.2,0.5L360.1,121.7z"/>
	<path class="st31" d="M353.7,120.7c-1.1-0.1-2.2-0.3-3.2-0.4l-0.1,1.1c1.1,0.1,2.2,0.3,3.2,0.4L353.7,120.7z"/>
	<path class="st31" d="M314.8,117.2c-1.1,0-2.2-0.1-3.3-0.1l0,1.1c1.1,0,2.2,0.1,3.2,0.1L314.8,117.2z"/>
	<path class="st31" d="M308.3,117c-1.1,0-2.2-0.1-3.3-0.1l0,1.1c1.1,0,2.2,0,3.2,0.1L308.3,117z"/>
	<path class="st31" d="M327.8,118c-1.1-0.1-2.2-0.2-3.2-0.2l-0.1,1.1c1.1,0.1,2.2,0.1,3.2,0.2L327.8,118z"/>
	<path class="st31" d="M423.5,136.6c-1-0.3-2.1-0.7-3.1-1l-0.3,1c1,0.3,2.1,0.7,3.1,1L423.5,136.6z"/>
	<path class="st31" d="M321.3,117.6c-1.1-0.1-2.2-0.1-3.3-0.2l-0.1,1.1c1.1,0.1,2.2,0.1,3.2,0.2L321.3,117.6z"/>
	<path class="st31" d="M404.7,131.1c-1-0.3-2.1-0.6-3.1-0.8l-0.3,1c1,0.3,2.1,0.6,3.1,0.8L404.7,131.1z"/>
	<path class="st31" d="M411,132.8c-1-0.3-2.1-0.6-3.1-0.9l-0.3,1c1,0.3,2.1,0.6,3.1,0.9L411,132.8z"/>
	<path class="st31" d="M417.2,134.7c-1-0.3-2.1-0.6-3.1-0.9l-0.3,1c1,0.3,2.1,0.6,3.1,0.9L417.2,134.7z"/>
	<path class="st31" d="M385.7,126.4c-1.1-0.2-2.1-0.5-3.2-0.7l-0.2,1.1c1.1,0.2,2.1,0.5,3.2,0.7L385.7,126.4z"/>
	<path class="st31" d="M373,123.9c-1.1-0.2-2.1-0.4-3.2-0.6l-0.2,1.1c1.1,0.2,2.1,0.4,3.2,0.6L373,123.9z"/>
	<path class="st31" d="M379.4,125.1c-1.1-0.2-2.1-0.4-3.2-0.6l-0.2,1.1c1.1,0.2,2.1,0.4,3.2,0.6L379.4,125.1z"/>
	<path class="st31" d="M392.1,127.9c-1-0.2-2.1-0.5-3.2-0.7l-0.2,1.1c1.1,0.2,2.1,0.5,3.2,0.7L392.1,127.9z"/>
	<path class="st31" d="M366.6,122.7c-1.1-0.2-2.1-0.4-3.2-0.5l-0.2,1.1c1.1,0.2,2.1,0.4,3.2,0.5L366.6,122.7z"/>
	<rect x="295.5" y="117.4" class="st33" width="3.3" height="249.5"/>
	<ellipse class="st33" cx="299" cy="120.2" rx="49.7" ry="50.6"/>
	<path class="st34" d="M245.8,386.8h-3.3v-69.2c0-9.9-8.1-18-18-18c-11.7,0-21.3-9.5-21.3-21.3V213h3.3v65.4c0,9.9,8.1,18,18,18
		c11.7,0,21.3,9.5,21.3,21.3V386.8z"/>
	<path class="st34" d="M334.1,386.8h-3.3v-88.5c0-6.3,2.5-12.3,6.9-16.8c4.5-4.5,10.4-6.9,16.8-6.9h54.2c11.3,0,20.5-9.2,20.5-20.5
		v-50.8h3.3v50.8c0,6.3-2.5,12.3-6.9,16.8c-4.5,4.5-10.4,6.9-16.8,6.9h-54.2c-11.3,0-20.5,9.2-20.5,20.5V386.8z"/>
	<circle class="st34" cx="429.8" cy="201.8" r="37.9"/>
	<path class="st33" d="M379.8,398.5h-3.3v-43.1c0-10,8.1-18.1,18.1-18.1h48.6v3.3h-48.6c-8.2,0-14.8,6.6-14.8,14.8V398.5z"/>
	<circle class="st33" cx="451" cy="338.6" r="37.9"/>
	<path class="st33" d="M199.6,404.2h-3.3v-21.4c0-7.9-6.4-14.3-14.3-14.3h-36.9c-9.7,0-17.5-7.9-17.5-17.5v-19.9h3.3V351
		c0,7.9,6.4,14.3,14.3,14.3h36.9c9.7,0,17.5,7.9,17.5,17.5V404.2z"/>
	<circle class="st33" cx="130" cy="312.7" r="37.9"/>
	<circle class="st34" cx="204.9" cy="213" r="37.9"/>
	<ellipse transform="matrix(0.161 -0.987 0.987 0.161 35.3217 475.1363)" class="st34" cx="297.1" cy="216.8" rx="17" ry="17"/>
	<circle class="st34" cx="378.9" cy="363" r="11.2"/>
	<circle class="st34" cx="172.3" cy="366.9" r="11.2"/>
	<circle class="st34" cx="297.1" cy="281" r="17"/>
	<circle class="st33" cx="244.2" cy="337.9" r="17"/>
	<circle class="st33" cx="378.2" cy="276.2" r="17"/>
	<path class="st35" d="M470.5,401.2c-3,0-5.9-0.7-8.5-2c-2.2-1.2-4.3-2.8-6.1-4.9c-3.1-3.6-4.5-7.3-4.5-7.3l0.5-0.2
		c0,0,1.4,3.7,4.4,7.2c1.8,2.1,3.8,3.7,6,4.8c2.7,1.4,5.7,2.1,8.9,2l0,0.5C471,401.2,470.8,401.2,470.5,401.2z"/>
	<g>
		<g>
			<path class="st36" d="M378.2,288c-6.5,0-11.8-5.3-11.8-11.8c0-6.5,5.3-11.8,11.8-11.8c6.5,0,11.8,5.3,11.8,11.8
				C389.9,282.7,384.7,288,378.2,288z M378.2,265c-6.2,0-11.2,5-11.2,11.2c0,6.2,5,11.2,11.2,11.2c6.2,0,11.2-5,11.2-11.2
				C389.4,270,384.4,265,378.2,265z"/>
			<rect x="377.9" y="264.7" class="st36" width="0.5" height="23"/>
			<rect x="366.7" y="275.9" class="st36" width="23" height="0.5"/>
			<path class="st36" d="M376.2,287.7c-2.4-2.9-3.9-5.9-4.5-8.9c-0.4-2.5-0.3-4.9,0.5-7.4c1.3-4.2,3.9-6.8,4-6.9l0.4,0.4
				c0,0-2.6,2.6-3.9,6.7c-0.7,2.4-0.9,4.8-0.5,7.1c0.5,3,2,5.9,4.3,8.6L376.2,287.7z"/>
			<path class="st36" d="M380.4,287.7l-0.4-0.3c2.3-2.8,3.8-5.7,4.3-8.6c0.4-2.4,0.3-4.8-0.5-7.1c-1.3-4.1-3.8-6.7-3.9-6.7l0.4-0.4
				c0.1,0.1,2.7,2.7,4,6.9c0.8,2.5,0.9,5,0.5,7.4C384.3,281.9,382.8,284.9,380.4,287.7z"/>
			<path class="st36" d="M378.5,270.9c-1.3,0-2.5-0.1-3.6-0.3c-3.2-0.6-5.4-1.8-5.5-1.9l0.3-0.5c0,0,2.2,1.2,5.3,1.8
				c2.9,0.5,7.3,0.7,11.6-1.8l0.3,0.5C384,270.4,381,270.9,378.5,270.9z"/>
			<path class="st36" d="M386.6,284.2c0,0-2.2-1.2-5.3-1.8c-2.9-0.5-7.3-0.7-11.6,1.8l-0.3-0.5c4.5-2.5,9-2.4,11.9-1.9
				c3.2,0.6,5.4,1.8,5.5,1.9L386.6,284.2z"/>
		</g>
		<path class="st37" d="M385.6,270.2c0,1.4-1.1,2.5-2.5,2.5c-1.4,0-2.5-1.1-2.5-2.5s1.1-2.5,2.5-2.5
			C384.5,267.8,385.6,268.9,385.6,270.2z"/>
		<path class="st37" d="M374.2,276.1c0,1.4-1.1,2.5-2.5,2.5c-1.4,0-2.5-1.1-2.5-2.5c0-1.4,1.1-2.5,2.5-2.5
			C373.1,273.7,374.2,274.8,374.2,276.1z"/>
		<path class="st37" d="M382.5,281.8c0,1.4-1.1,2.5-2.5,2.5c-1.4,0-2.5-1.1-2.5-2.5c0-1.4,1.1-2.5,2.5-2.5
			C381.4,279.4,382.5,280.5,382.5,281.8z"/>
	</g>
	<g>
		<path class="st36" d="M292.7,291.2h-5.1v-8.5h5.1V291.2z M288.2,290.7h4v-7.4h-4V290.7z"/>
		<path class="st36" d="M299,291.2h-5.1v-12.1h5.1V291.2z M294.5,290.7h4v-11h-4V290.7z"/>
		<g>
			<rect x="300.6" y="276.3" class="st37" width="4.5" height="14.7"/>
			<path class="st37" d="M305.4,291.2h-5.1V276h5.1V291.2z M300.9,290.7h4v-14.1h-4V290.7z"/>
		</g>
		
			<rect x="284.9" y="275.8" transform="matrix(0.8626 -0.506 0.506 0.8626 -99.03 187.5696)" class="st36" width="21.7" height="0.5"/>
		<g>
			<polygon class="st38" points="301,271.3 306,270.1 302.6,273.8 			"/>
			<path class="st36" d="M302.6,274.2l-2.1-3.1l6.2-1.5L302.6,274.2z M301.4,271.5l1.2,1.9l2.5-2.8L301.4,271.5z"/>
		</g>
	</g>
	<g>
		<path class="st36" d="M243.2,337.9c-3.2,0-5.8-2.6-5.8-5.8c0-3.2,2.6-5.8,5.8-5.8c3.2,0,5.8,2.6,5.8,5.8
			C248.9,335.3,246.4,337.9,243.2,337.9z M243.2,326.9c-2.9,0-5.2,2.3-5.2,5.2c0,2.9,2.3,5.2,5.2,5.2c2.9,0,5.2-2.3,5.2-5.2
			C248.4,329.2,246.1,326.9,243.2,326.9z"/>
		<path class="st36" d="M250.5,347h-14.6v-2.3c0-4,3.3-7.3,7.3-7.3c4,0,7.3,3.3,7.3,7.3V347z M236.4,346.5H250v-1.8
			c0-3.7-3-6.8-6.8-6.8c-3.7,0-6.8,3-6.8,6.8V346.5z"/>
		<g>
			<path class="st37" d="M251.3,337.2c0,2-1.6,3.6-3.6,3.6c-2,0-3.6-1.6-3.6-3.6c0-2,1.6-3.6,3.6-3.6
				C249.6,333.7,251.3,335.3,251.3,337.2z"/>
			<path class="st37" d="M247.7,341.1c-2.1,0-3.9-1.7-3.9-3.9c0-2.1,1.7-3.9,3.9-3.9s3.8,1.7,3.8,3.9
				C251.5,339.4,249.8,341.1,247.7,341.1z M247.7,333.9c-1.8,0-3.3,1.5-3.3,3.3c0,1.8,1.5,3.3,3.3,3.3c1.8,0,3.3-1.5,3.3-3.3
				C251,335.4,249.5,333.9,247.7,333.9z"/>
		</g>
		<g>
			<path class="st37" d="M252.3,346.7h-9.2v-1.3c0-2.5,2.1-4.6,4.6-4.6l0,0c2.5,0,4.6,2.1,4.6,4.6V346.7z"/>
			<path class="st37" d="M252.5,347h-9.7v-1.6c0-2.7,2.2-4.9,4.9-4.9c2.7,0,4.9,2.2,4.9,4.9V347z M243.4,346.5h8.6v-1.1
				c0-2.4-1.9-4.3-4.3-4.3c-2.4,0-4.3,1.9-4.3,4.3V346.5z"/>
		</g>
	</g>
	<g>
		<path class="st36" d="M304.6,226h-16.4c-1.7,0-3.1-1.4-3.1-3.1v-11.2c0-1.7,1.4-3.1,3.1-3.1h16.4c1.7,0,3.1,1.4,3.1,3.1V223
			C307.6,224.6,306.3,226,304.6,226z M288.2,209.2c-1.4,0-2.5,1.1-2.5,2.5V223c0,1.4,1.1,2.5,2.5,2.5h16.4c1.4,0,2.5-1.1,2.5-2.5
			v-11.2c0-1.4-1.1-2.5-2.5-2.5H288.2z"/>
		<path class="st36" d="M307.6,220.4h-7.8c-1.6,0-2.9-1.3-2.9-2.9c0-1.6,1.3-2.9,2.9-2.9h7.8V220.4z M299.9,215.1
			c-1.3,0-2.4,1.1-2.4,2.4c0,1.3,1.1,2.4,2.4,2.4h7.2v-4.7H299.9z"/>
		<path class="st36" d="M300.3,219c-0.8,0-1.5-0.7-1.5-1.5c0-0.8,0.7-1.5,1.5-1.5c0.8,0,1.5,0.7,1.5,1.5
			C301.8,218.3,301.1,219,300.3,219z M300.3,216.6c-0.5,0-0.9,0.4-0.9,0.9c0,0.5,0.4,0.9,0.9,0.9c0.5,0,0.9-0.4,0.9-0.9
			C301.2,217,300.8,216.6,300.3,216.6z"/>
		<path class="st36" d="M303.6,209.2h-16l14.6-3.7L303.6,209.2z M292,208.7h10.9l-1-2.5L292,208.7z"/>
		<g>
			<path class="st36" d="M290.6,209h-2.5c-1.5,0-2.8,1.2-2.8,2.8V223c0,1.5,1.2,2.8,2.8,2.8h2.5V209z"/>
			<path class="st36" d="M290.9,226h-2.7c-1.7,0-3.1-1.4-3.1-3.1v-11.2c0-1.7,1.4-3.1,3.1-3.1h2.7V226z M288.2,209.2
				c-1.4,0-2.5,1.1-2.5,2.5V223c0,1.4,1.1,2.5,2.5,2.5h2.2v-16.2H288.2z"/>
		</g>
	</g>
	<path class="st36" d="M172.2,374.6l-0.2-0.2c-5-5-4.9-9.9-4.9-10.1c0-2.8,2.3-5.1,5.1-5.1c2.8,0,5.1,2.3,5.1,5.1
		c0,0.3,0,5.1-4.9,10.1L172.2,374.6z M172.2,359.8c-2.5,0-4.6,2.1-4.6,4.6c0,0.1,0,4.7,4.6,9.5c4.6-4.8,4.6-9.4,4.6-9.5l0,0
		C176.8,361.9,174.7,359.8,172.2,359.8z M172.2,366.6c-1.2,0-2.3-1-2.3-2.3c0-1.2,1-2.3,2.3-2.3c1.2,0,2.3,1,2.3,2.3
		C174.5,365.6,173.4,366.6,172.2,366.6z M172.2,362.7c-0.9,0-1.7,0.8-1.7,1.7c0,0.9,0.8,1.7,1.7,1.7c0.9,0,1.7-0.8,1.7-1.7
		C173.9,363.4,173.1,362.7,172.2,362.7z"/>
	<g>
		<path class="st36" d="M378.9,371.1c-4.5,0-8.1-3.6-8.1-8.1c0-4.5,3.6-8.1,8.1-8.1c4.5,0,8.1,3.6,8.1,8.1
			C387,367.5,383.3,371.1,378.9,371.1z M378.9,355.4c-4.2,0-7.6,3.4-7.6,7.6c0,4.2,3.4,7.6,7.6,7.6c4.2,0,7.6-3.4,7.6-7.6
			C386.5,358.8,383.1,355.4,378.9,355.4z"/>
		<path class="st36" d="M378.9,369.2c-3.4,0-6.2-2.8-6.2-6.2c0-3.4,2.8-6.2,6.2-6.2c3.4,0,6.2,2.8,6.2,6.2
			C385.1,366.4,382.3,369.2,378.9,369.2z M378.9,357.4c-3.1,0-5.6,2.5-5.6,5.6s2.5,5.6,5.6,5.6c3.1,0,5.6-2.5,5.6-5.6
			S382,357.4,378.9,357.4z"/>
		<rect x="378.6" y="357.1" class="st36" width="0.5" height="1.6"/>
		<rect x="378.6" y="367.4" class="st36" width="0.5" height="1.6"/>
		<rect x="383.2" y="362.7" class="st36" width="1.6" height="0.5"/>
		<rect x="372.9" y="362.7" class="st36" width="1.6" height="0.5"/>
		<polygon class="st36" points="378.8,363.5 377.3,360.5 377.7,360.3 378.9,362.6 382.2,359.2 382.6,359.5 		"/>
	</g>
	<g>
		
			<image style="overflow:visible;opacity:0.82;" width="1796" height="1124" xlink:href="F9DE8728.png"  transform="matrix(0.24 0 0 0.24 80.765 311.9497)">
		</image>
		<g>
			<g>
				<path class="st34" d="M296.4,366.2c-89.1,0-161.4,72.2-161.4,161.4h322.7C457.7,438.4,385.5,366.2,296.4,366.2z"/>
			</g>
			<defs>
				<filter id="Adobe_OpacityMaskFilter" filterUnits="userSpaceOnUse" x="135" y="366.2" width="322.7" height="161.4">
					
						<feColorMatrix  type="matrix" values="-1 0 0 0 1  0 -1 0 0 1  0 0 -1 0 1  0 0 0 1 0" color-interpolation-filters="sRGB" result="source"/>
				</filter>
			</defs>
			<mask maskUnits="userSpaceOnUse" x="135" y="366.2" width="322.7" height="161.4" id="SVGID_7_">
				<g class="st39">
					
						<image style="overflow:visible;" width="1363" height="690" xlink:href="F9DE8728.jpg"  transform="matrix(0.24 0 0 0.24 132.845 364.0297)">
					</image>
				</g>
			</mask>
			<g style="opacity:0.75;mask:url(#SVGID_7_);">
				<path class="st36" d="M296.4,366.2c-89.1,0-161.4,72.2-161.4,161.4h322.7C457.7,438.4,385.5,366.2,296.4,366.2z"/>
			</g>
		</g>
	</g>
	<rect x="409.5" y="325.9" class="st32" width="82.6" height="34"/>
	<text transform="matrix(1 0 0 1 430.0867 335.5555)"><tspan x="0" y="0" class="st36 st41 st42">SINCE</tspan><tspan x="6" y="15.6" class="st36 st41 st42">2013 </tspan></text>
	<rect x="401.2" y="188.8" class="st32" width="60.3" height="31.4"/>
	<text transform="matrix(1 0 0 1 416.91 198.4071)"><tspan x="0" y="0" class="st36 st41 st42">80 + </tspan><tspan x="-9.3" y="13" class="st36 st41 st42">TEAMS</tspan></text>
	<rect x="231.4" y="105.6" class="st32" width="135.4" height="38.2"/>
	<text transform="matrix(1 0 0 1 283.8451 114.5261)"><tspan x="0" y="0" class="st36 st41 st43">300+</tspan><tspan x="-31.5" y="12" class="st36 st41 st43">PARTICIPANTS</tspan></text>
	<rect x="85.9" y="297.1" class="st32" width="88.2" height="31.4"/>
	<text transform="matrix(1 0 0 1 119.6761 306.7069)"><tspan x="0" y="0" class="st36 st41 st42">15+</tspan><tspan x="-25.7" y="13" class="st36 st41 st42">COLLEGES</tspan></text>
	<rect x="27.6" y="28.9" class="st32" width="349.6" height="30.1"/>
	<text transform="matrix(1 0 0 1 38.8149 49.6548)"><tspan x="0" y="0" class="st41 st44">PREVI</tspan><tspan x="89.9" y="0" class="st34 st41 st44">O</tspan><tspan x="113.6" y="0" class="st41 st44">US STATISTICS</tspan></text>
	<rect x="183.4" y="446.7" class="st32" width="221.1" height="37.3"/>
	<text transform="matrix(1 0 0 1 190.0276 473.4401)" class="st36 st41 st45">JUGAAD’18</text>
	<rect x="332.8" y="252.4" class="st32" width="75.6" height="31.1"/>
	<rect x="131.5" y="578.5" class="st32" width="424.9" height="178.1"/>
	<text transform="matrix(1 0 0 1 154.7128 594.0466)"><tspan x="0" y="0" class="st46 st47">Every year JUGAAD welcomes a huge </tspan><tspan x="19.5" y="23" class="st46 st47">number of participants from an age </tspan><tspan x="-21.6" y="46" class="st46 st47">group of 17-25 years . Over the years the  </tspan><tspan x="-13.6" y="69" class="st46 st47">success is rising and there has been an </tspan><tspan x="29" y="92" class="st46 st47">increase in number of participants, </tspan><tspan x="29.8" y="115" class="st46 st47">along with the prizes getting more </tspan><tspan x="115" y="138" class="st46 st47">prestigeous over the years.</tspan></text>
	<rect x="-0.5" y="560.5" class="st48" width="595.3" height="279.6"/>
	<rect x="175.2" y="200.3" class="st32" width="60.3" height="31.4"/>
	<text transform="matrix(1 0 0 1 188.4937 209.8965)"><tspan x="0" y="0" class="st36 st41 st42">17-25 </tspan><tspan x="-5.9" y="13" class="st36 st41 st42">YEARS</tspan></text>
</g>
<g id="winners_2k18">
</g>
<g id="why_sponser_jugaad">
	<g>
		<defs>
			<rect id="SVGID_33_" x="1.1" y="862.6" width="595.3" height="841.9"/>
		</defs>
		<clipPath id="SVGID_8_">
			<use xlink:href="#SVGID_33_"  style="overflow:visible;"/>
		</clipPath>
		<path style="opacity:0.2;clip-path:url(#SVGID_8_);" d="M891.1,1685.4c25.6-86.8-84.8-181.5,43.7-318
			c82.2-87.3,148.6-244.8,30.8-417.8S659.7,744.2,437,792.8s132.9,196.3,39.3,455.8s-4.4,394.6,147.5,468.5
			C775.7,1790.9,862.4,1782.5,891.1,1685.4z"/>
	</g>
	<g>
		<g>
			
				<image style="overflow:visible;opacity:0.75;" width="1575" height="1559" xlink:href="F9DE872F.png"  transform="matrix(0.24 0 0 0.24 228.1804 837.5964)">
			</image>
		</g>
	</g>
</g>
<g id="spons_avenue">
</g>
<g id="previous_spons">
</g>
<g id="contact">
</g>
</svg>
