<svg xmlns="http://www.w3.org/2000/svg" xmlns:xlink="http://www.w3.org/1999/xlink" viewBox="0 0 485 127"><defs><style>.cls-1,.cls-2,.cls-3,.cls-4{fill:none;}.cls-2,.cls-3,.cls-4{stroke:#231f20;}.cls-2{stroke-width:0.72px;}.cls-3{stroke-width:0.4px;}.cls-4{stroke-width:4px;}.cls-5{fill:#429acf;}.cls-6{fill:url(#_10_lpi_10_);}.cls-7{fill:#f94b42;}.cls-8{fill:#fdc542;}.cls-9{fill:#bdcccb;}.cls-10{fill:#fef1e3;}.cls-11{fill:url(#Scotch_Rule_2);}</style><pattern id="_10_lpi_10_" data-name="10 lpi 10%" width="72" height="72" patternTransform="translate(45.46 189.06) scale(1.28)" patternUnits="userSpaceOnUse" viewBox="0 0 72 72"><rect class="cls-1" width="72" height="72"/><line class="cls-2" x1="71.75" y1="68.4" x2="144.25" y2="68.4"/><line class="cls-2" x1="71.75" y1="54" x2="144.25" y2="54"/><line class="cls-2" x1="71.75" y1="39.6" x2="144.25" y2="39.6"/><line class="cls-2" x1="71.75" y1="25.2" x2="144.25" y2="25.2"/><line class="cls-2" x1="71.75" y1="10.8" x2="144.25" y2="10.8"/><line class="cls-2" x1="71.75" y1="61.2" x2="144.25" y2="61.2"/><line class="cls-2" x1="71.75" y1="46.8" x2="144.25" y2="46.8"/><line class="cls-2" x1="71.75" y1="32.4" x2="144.25" y2="32.4"/><line class="cls-2" x1="71.75" y1="18" x2="144.25" y2="18"/><line class="cls-2" x1="71.75" y1="3.6" x2="144.25" y2="3.6"/><line class="cls-2" x1="-0.25" y1="68.4" x2="72.25" y2="68.4"/><line class="cls-2" x1="-0.25" y1="54" x2="72.25" y2="54"/><line class="cls-2" x1="-0.25" y1="39.6" x2="72.25" y2="39.6"/><line class="cls-2" x1="-0.25" y1="25.2" x2="72.25" y2="25.2"/><line class="cls-2" x1="-0.25" y1="10.8" x2="72.25" y2="10.8"/><line class="cls-2" x1="-0.25" y1="61.2" x2="72.25" y2="61.2"/><line class="cls-2" x1="-0.25" y1="46.8" x2="72.25" y2="46.8"/><line class="cls-2" x1="-0.25" y1="32.4" x2="72.25" y2="32.4"/><line class="cls-2" x1="-0.25" y1="18" x2="72.25" y2="18"/><line class="cls-2" x1="-0.25" y1="3.6" x2="72.25" y2="3.6"/><line class="cls-2" x1="-72.25" y1="68.4" x2="0.25" y2="68.4"/><line class="cls-2" x1="-72.25" y1="54" x2="0.25" y2="54"/><line class="cls-2" x1="-72.25" y1="39.6" x2="0.25" y2="39.6"/><line class="cls-2" x1="-72.25" y1="25.2" x2="0.25" y2="25.2"/><line class="cls-2" x1="-72.25" y1="10.8" x2="0.25" y2="10.8"/><line class="cls-2" x1="-72.25" y1="61.2" x2="0.25" y2="61.2"/><line class="cls-2" x1="-72.25" y1="46.8" x2="0.25" y2="46.8"/><line class="cls-2" x1="-72.25" y1="32.4" x2="0.25" y2="32.4"/><line class="cls-2" x1="-72.25" y1="18" x2="0.25" y2="18"/><line class="cls-2" x1="-72.25" y1="3.6" x2="0.25" y2="3.6"/></pattern><pattern id="Scotch_Rule_2" data-name="Scotch Rule 2" width="70.8" height="72" patternTransform="translate(10.83 156.44) scale(1.27)" patternUnits="userSpaceOnUse" viewBox="0 0 70.8 72"><rect class="cls-1" width="70.8" height="72"/><line class="cls-3" x1="35.4" y1="72" x2="35.4"/><line class="cls-3" x1="11.8" y1="72" x2="11.8"/><line class="cls-3" x1="59" y1="72" x2="59"/><line class="cls-4" x1="30.8" y1="72" x2="30.8"/><line class="cls-4" x1="7.2" y1="72" x2="7.2"/><line class="cls-4" x1="54.4" y1="72" x2="54.4"/><line class="cls-4" x1="16.4" y1="72" x2="16.4"/><line class="cls-4" x1="40" y1="72" x2="40"/><line class="cls-4" x1="63.6" y1="72" x2="63.6"/></pattern></defs><title>jugaad</title><g id="DESIGNED_BY_FREEPIK" data-name="DESIGNED BY FREEPIK"><path class="cls-5" d="M45.14,33.92V89.09s18.6-1.61,20.53-10.27.57-41,.57-41Z"/><path class="cls-6" d="M45.14,33.92V89.09s18.6-1.61,20.53-10.27.57-41,.57-41Z"/><path class="cls-7" d="M48.2,34.42H74.92v34.3c.33,14.82-9,25.06-24.23,25.06-14.23,0-23.06-9.24-23.06-24.56h8.83c0,10.32,4.16,16.32,14.23,16.32,10.24,0,15.57-6.83,15.57-16.82V42.41H48.2Z"/><path d="M45.63,34.42H72.35v34.3c.34,14.82-9,25.06-24.22,25.06-14.24,0-23.06-9.24-23.06-24.56h8.82c0,10.32,4.16,16.32,14.24,16.32,10.24,0,15.57-6.83,15.57-16.82V42.41H45.63Z"/><rect class="cls-8" x="42.57" y="33.92" width="35.92" height="8.98" transform="translate(-1.31 2.15) rotate(-2.01)"/><path class="cls-5" d="M211.88,41.51V82.57S169.37,102.88,168,62C167,30,209.49,40.87,211.88,41.51Z"/><path class="cls-8" d="M219.41,40.06c0,4.08-.09,8.07-.17,12.49h-7.91l-.17-8.41a30.37,30.37,0,0,0-12.32-2.67C184.94,41.47,177.2,52,177.2,64c0,10.82,6.49,21.48,21.89,21.48,5.75,0,9.33-1.25,13.74-5.25V69.53H195.51V62.12h25V83.6c-5.25,6.83-12.49,10.16-21.56,10.16-21.23,0-30.48-14.16-30.48-29.72-.08-16.9,10.91-30.72,30.39-30.72C206.5,33.32,213.25,35.15,219.41,40.06Z"/><path d="M214.27,40.06c0,4.08-.08,8.07-.16,12.49H206.2L206,44.14a30.37,30.37,0,0,0-12.32-2.67c-13.9,0-21.65,10.49-21.65,22.57,0,10.82,6.5,21.48,21.9,21.48,5.75,0,9.33-1.25,13.74-5.25V69.53H190.38V62.12h25V83.6c-5.25,6.83-12.49,10.16-21.57,10.16-21.23,0-30.47-14.16-30.47-29.72-.08-16.9,10.91-30.72,30.39-30.72C201.37,33.32,208.11,35.15,214.27,40.06Z"/><rect class="cls-7" x="188.78" y="60.76" width="26.94" height="11.55"/><rect class="cls-7" x="184.94" y="72.3" width="11.55" height="2.57"/><polygon class="cls-8" points="255.34 70.91 288.7 70.91 272.02 37.12 255.34 70.91"/><path class="cls-7" d="M266.22,42.27h-6.17V34.36h19.74l22.06,50.2h5.41v8.08H285.61V84.56h7c-1.5-3-2.58-6.08-3.75-8.57H260.05c-1,2.41-2.49,5.49-3.83,8.57H263v8.08H241.41V84.56h5.41Zm19.14,25.89c-2.91-6.91-5.82-14.24-10.57-25.23-5,11.33-8.41,18.49-11.32,25.23Z"/><path d="M262.37,42.27h0l5.8-7.91h7.77L298,84.56h5.41v8.08H281.76V84.56h7c-1.5-3-2.58-6.08-3.75-8.57h-28.8c-1,2.41-2.5,5.49-3.83,8.57h6.74v8.08H237.56V84.56H243Zm19.14,25.89c-2.91-6.91-5.82-14.24-10.57-25.23-5,11.33-8.41,18.49-11.32,25.23Z"/><rect class="cls-9" x="237.38" y="83.73" width="21.81" height="8.98"/><rect class="cls-9" x="281" y="83.73" width="23.09" height="8.98"/><rect class="cls-9" x="233.53" y="81.17" width="11.55" height="2.57"/><polygon class="cls-8" points="249.34 70.91 282.7 70.91 266.02 37.12 249.34 70.91"/><path class="cls-7" d="M260.22,42.27h-6.17V34.36h19.74l22.06,50.2h5.41v8.08H279.61V84.56h7c-1.5-3-2.58-6.08-3.75-8.57H254.05c-1,2.41-2.49,5.49-3.83,8.57H257v8.08H235.41V84.56h5.41Zm19.14,25.89c-2.91-6.91-5.82-14.24-10.57-25.23-5,11.33-8.41,18.49-11.32,25.23Z"/><path d="M256.37,42.27h0l5.8-7.91h7.77L292,84.56h5.41v8.08H275.76V84.56h7c-1.5-3-2.58-6.08-3.75-8.57h-28.8c-1,2.41-2.5,5.49-3.83,8.57h6.74v8.08H231.56V84.56H237Zm19.14,25.89c-2.91-6.91-5.82-14.24-10.57-25.23-5,11.33-8.41,18.49-11.32,25.23Z"/><rect class="cls-9" x="231.38" y="83.73" width="21.81" height="8.98"/><rect class="cls-9" x="275" y="83.73" width="23.09" height="8.98"/><rect class="cls-9" x="227.53" y="81.17" width="11.55" height="2.57"/><polygon class="cls-8" points="333.43 70.91 366.79 70.91 350.11 37.12 333.43 70.91"/><path class="cls-7" d="M344.3,42.27h-6.16V34.36h19.73l22.06,50.2h5.42v8.08H363.7V84.56h7c-1.5-3-2.58-6.08-3.74-8.57H338.14c-1,2.41-2.5,5.49-3.83,8.57h6.74v8.08H319.49V84.56h5.41Zm19.15,25.89c-2.91-6.91-5.83-14.24-10.57-25.23-5,11.33-8.41,18.49-11.33,25.23Z"/><path d="M340.45,42.27h0l5.81-7.91H354l22.07,50.2h5.41v8.08H359.85V84.56h7c-1.49-3-2.58-6.08-3.74-8.57H334.29c-1,2.41-2.5,5.49-3.83,8.57h6.75v8.08H315.64V84.56h5.41ZM359.6,68.16c-2.91-6.91-5.83-14.24-10.57-25.23-5,11.33-8.41,18.49-11.33,25.23Z"/><rect class="cls-9" x="315.47" y="83.73" width="21.81" height="8.98"/><rect class="cls-9" x="359.09" y="83.73" width="23.09" height="8.98"/><rect class="cls-9" x="311.62" y="81.17" width="11.55" height="2.57"/><path class="cls-10" d="M415,37.67V89s17.53-6.85,17.11-28.23S415,37.67,415,37.67Z"/><path class="cls-8" d="M396.07,92.76V84.68h7V42.3h-6.82V34.4h27.47c19.9,0,29.31,12.82,29.22,28.63s-8.82,29.73-29.22,29.73Zm27.64-8c14.57,0,20.31-11.23,20.48-21.81s-6.58-20.56-20.48-20.56H411.89V84.76Z"/><path d="M390.94,92.76V84.68h7V42.3H391.1V34.4h27.48c19.9,0,29.3,12.82,29.22,28.63S439,92.76,418.58,92.76Zm27.64-8c14.57,0,20.31-11.23,20.48-21.81s-6.58-20.56-20.48-20.56H406.76V84.76Z"/><rect class="cls-7" x="411.1" y="33.82" width="7.7" height="59.01"/><rect class="cls-7" x="418.8" y="86.42" width="2.57" height="12.83"/><path class="cls-8" d="M139.27,68.52V53.42h-7.43V45.5H154.2v7.92h-6.52V68.68c0,17-11.55,25-24.17,25-12.12,0-24.58-7.76-24.58-25V42.45H92.49V34.53h22.44v7.92h-7.42V68.68c0,11.14,7.42,16.91,16,16.91S139.27,79.49,139.27,68.52Z"/><path d="M134.18,68.52V53.42h-7.42V45.5h22.35v7.92H142.6V68.68c0,17-11.55,25-24.17,25-12.13,0-24.59-7.76-24.59-25V42.45H87.41V34.53h22.44v7.92h-7.43V68.68c0,11.14,7.43,16.91,16,16.91S134.18,79.49,134.18,68.52Z"/><rect class="cls-7" x="126.48" y="30.54" width="21.61" height="7.63"/><rect class="cls-11" x="126.48" y="30.54" width="21.61" height="7.63"/><rect x="149.36" y="41.98" width="10.17" height="3.81"/><rect class="cls-7" x="118.85" y="28" width="7.63" height="2.54"/></g></svg>