<?xml version="1.0" encoding="utf-8"?>
<!-- Generator: Adobe Illustrator 22.1.0, SVG Export Plug-In . SVG Version: 6.00 Build 0)  -->
<svg version="1.1" xmlns="http://www.w3.org/2000/svg" xmlns:xlink="http://www.w3.org/1999/xlink" x="0px" y="0px"
	 viewBox="0 0 595.3 841.9" style="enable-background:new 0 0 595.3 841.9;" xml:space="preserve">
<style type="text/css">
	.st0{opacity:0.5;}
	.st1{clip-path:url(#SVGID_2_);}
	.st2{opacity:0.8;clip-path:url(#SVGID_4_);}
	.st3{clip-path:url(#SVGID_6_);}
	.st4{fill:url(#SVGID_7_);}
	.st5{opacity:0.9;fill:url(#SVGID_8_);}
	.st6{fill:url(#SVGID_9_);}
	.st7{fill:url(#SVGID_10_);}
	.st8{fill:url(#SVGID_11_);}
	.st9{fill:url(#SVGID_12_);}
	.st10{opacity:0.5;fill:url(#SVGID_13_);}
	.st11{opacity:0.6;fill:none;stroke:#000000;stroke-width:36;stroke-miterlimit:10;}
	.st12{opacity:0.6;fill:none;stroke:#000000;stroke-width:10;stroke-miterlimit:10;}
	.st13{opacity:0.8;}
	.st14{fill:#E21E26;}
	.st15{fill:#696969;}
	.st16{fill:#FFFFFF;}
	.st17{font-family:'Raleway-Black';}
	.st18{font-size:50.7261px;}
	.st19{font-family:'Montserrat-Light';}
	.st20{font-size:9.1881px;}
	.st21{opacity:0.44;fill:#FFFFFF;}
	.st22{opacity:0.2;clip-path:url(#SVGID_15_);}
	.st23{opacity:0.2;clip-path:url(#SVGID_17_);}
	.st24{opacity:0.2;clip-path:url(#SVGID_19_);}
	.st25{opacity:0.81;clip-path:url(#SVGID_19_);}
	.st26{clip-path:url(#SVGID_19_);}
	.st27{fill:none;stroke:#000000;stroke-width:1.6107;stroke-miterlimit:10;}
	.st28{fill:#FFFFFF;stroke:#000000;stroke-width:1.6107;stroke-miterlimit:10;}
	.st29{opacity:0.2;clip-path:url(#SVGID_19_);fill:#FFFFFF;}
	.st30{fill:#ED1C24;}
	.st31{opacity:0.2;clip-path:url(#SVGID_21_);}
	.st32{opacity:0.81;clip-path:url(#SVGID_21_);}
	.st33{clip-path:url(#SVGID_21_);}
	.st34{clip-path:url(#SVGID_21_);fill:none;}
	.st35{opacity:0.2;clip-path:url(#SVGID_23_);}
	.st36{fill:#BDBEC0;}
	.st37{fill:#626364;}
	.st38{fill:#E01F26;}
	.st39{fill:#424143;}
	.st40{fill:#F04F5B;}
	.st41{fill:#0C96BF;}
	.st42{filter:url(#Adobe_OpacityMaskFilter);}
	.st43{opacity:0.75;mask:url(#SVGID_24_);}
	.st44{opacity:0.18;fill:#FFFFFF;}
	.st45{opacity:0.82;}
	.st46{opacity:0.2;clip-path:url(#SVGID_26_);}
	.st47{opacity:0.2;fill:#FFFFFF;}
	.st48{opacity:0.64;}
	.st49{opacity:0.2;clip-path:url(#SVGID_34_);}
	.st50{opacity:0.19;fill:#FFFFFF;}
	.st51{opacity:0.81;}
	.st52{clip-path:url(#SVGID_36_);fill:none;stroke:#000000;stroke-width:1.6107;stroke-miterlimit:10;}
	.st53{clip-path:url(#SVGID_36_);fill:#FFFFFF;stroke:#000000;stroke-width:1.6107;stroke-miterlimit:10;}
	.st54{opacity:0.2;clip-path:url(#SVGID_36_);}
	.st55{opacity:0.44;clip-path:url(#SVGID_36_);fill:#FFFFFF;}
	.st56{opacity:0.81;clip-path:url(#SVGID_36_);}
	.st57{clip-path:url(#SVGID_36_);}
	.st58{clip-path:url(#SVGID_36_);fill:none;}
	.st59{fill:none;}
	.st60{opacity:0.2;clip-path:url(#SVGID_42_);}
	.st61{opacity:0.2;clip-path:url(#SVGID_44_);}
	.st62{opacity:0.4;fill:#6D6E71;}
	.st63{fill:#E6E7E8;}
	.st64{fill:#2A282E;}
	.st65{fill-rule:evenodd;clip-rule:evenodd;fill:#2A282E;}
</style>
<g id="cover_page">
	<g>
		<g class="st0">
			<defs>
				<rect id="SVGID_1_" x="0" y="0" class="st0" width="595.3" height="841.9"/>
			</defs>
			<clipPath id="SVGID_2_">
				<use xlink:href="#SVGID_1_"  style="overflow:visible;"/>
			</clipPath>
			<g class="st1">
				<defs>
					<rect id="SVGID_3_" x="-140" y="-27.4" width="1139.3" height="1139.3"/>
				</defs>
				<clipPath id="SVGID_4_">
					<use xlink:href="#SVGID_3_"  style="overflow:visible;"/>
				</clipPath>
				<g class="st2">
					<g>
						<defs>
							<rect id="SVGID_5_" x="-424.8" y="-27.4" width="1708.9" height="1139.3"/>
						</defs>
						<clipPath id="SVGID_6_">
							<use xlink:href="#SVGID_5_"  style="overflow:visible;"/>
						</clipPath>
						<g class="st3">
							<linearGradient id="SVGID_7_" gradientUnits="userSpaceOnUse" x1="-937.0286" y1="1790.6932" x2="1696.9792" y2="-615.456">
								<stop  offset="0.1133" style="stop-color:#FFFFFF"/>
								<stop  offset="0.3173" style="stop-color:#F3F3F4"/>
								<stop  offset="0.6441" style="stop-color:#DCDEE2"/>
								<stop  offset="1" style="stop-color:#BEC4CC"/>
							</linearGradient>
							<rect x="-424.8" y="-27.4" class="st4" width="1708.9" height="1139.3"/>
							<g>
								<linearGradient id="SVGID_8_" gradientUnits="userSpaceOnUse" x1="340.4947" y1="180.3003" x2="685.6768" y2="1188.5061">
									<stop  offset="0.1133" style="stop-color:#FFFFFF"/>
									<stop  offset="0.3173" style="stop-color:#F3F3F4"/>
									<stop  offset="0.6441" style="stop-color:#DCDEE2"/>
									<stop  offset="1" style="stop-color:#BEC4CC"/>
								</linearGradient>
								<path class="st5" d="M1284.1,716.5V-27.4H977.4c-63.6,106.9-134.6,209.9-210,307.2c-117,151.2-262.3,288.1-439.4,365
									c-232.8,101.2-496.9,149-752.8,162.3v101.5C200,710.4,908.3,702.6,1284.1,716.5z"/>
								<linearGradient id="SVGID_9_" gradientUnits="userSpaceOnUse" x1="-481.7063" y1="114.1505" x2="116.3843" y2="541.3585">
									<stop  offset="0.1133" style="stop-color:#FFFFFF"/>
									<stop  offset="0.3173" style="stop-color:#F3F3F4"/>
									<stop  offset="0.6441" style="stop-color:#DCDEE2"/>
									<stop  offset="1" style="stop-color:#BEC4CC"/>
								</linearGradient>
								<path class="st6" d="M87-27.4h-511.8v729.9C-290.7,604.5-55,383.8,87-27.4z"/>
								<g>
									<linearGradient id="SVGID_10_" gradientUnits="userSpaceOnUse" x1="-255.9393" y1="161.4821" x2="273.7979" y2="639.9551">
										<stop  offset="0.1133" style="stop-color:#FFFFFF"/>
										<stop  offset="0.3173" style="stop-color:#F3F3F4"/>
										<stop  offset="0.6441" style="stop-color:#DCDEE2"/>
										<stop  offset="1" style="stop-color:#BEC4CC"/>
									</linearGradient>
									<path class="st7" d="M-424.8,702.5v78C-272.3,728,16.1,599.3,184.6,338.8C295.2,167.9,355.9,49.9,389.3-27.4H87
										C-55,383.8-290.7,604.5-424.8,702.5z"/>
								</g>
							</g>
							<linearGradient id="SVGID_11_" gradientUnits="userSpaceOnUse" x1="-42.9387" y1="395.3906" x2="-263.9577" y2="213.107">
								<stop  offset="0" style="stop-color:#FFFFFF"/>
								<stop  offset="1" style="stop-color:#FFFFFF;stop-opacity:0"/>
							</linearGradient>
							<path class="st8" d="M-60.7-20.8c-47.9,152.5-98.3,306.9-186.5,434.7c-71.8,104-173.2,189.4-289.2,219.7l-66.4-260.7
								c25.8-20.1,52.6-39.2,78.2-58.9c98.2-75.7,185.7-167.4,258.7-271.4c30.5-43.3,58.7-89.3,76.8-140.5
								c6.3-17.8,11.2-35.9,15.2-54.4l190.4-48.5c-8.3,12.1-16,24.7-23,37.8C-30.1-118.7-45.4-69.6-60.7-20.8z"/>
							<linearGradient id="SVGID_12_" gradientUnits="userSpaceOnUse" x1="489.3832" y1="644.3823" x2="588.4951" y2="849.4417">
								<stop  offset="0" style="stop-color:#FFFFFF"/>
								<stop  offset="1" style="stop-color:#FFFFFF;stop-opacity:0"/>
							</linearGradient>
							<path style="opacity:0.5;fill:url(#SVGID_12_);" d="M939.9,745.8c-241,150.2-540.1,166.5-806.2,265.6
								c-155,57.7-299.1,144.4-423.1,253.8l-58.2-8.8C-181,1125.4-38.4,965.3,133,841.5c186.4-134.6,419.5-191,628.8-278.3
								c232-96.7,442.6-243.5,615-426.3l-24.7,164.6C1236.8,473.2,1113.5,637.6,939.9,745.8z"/>
						</g>
					</g>
				</g>
			</g>
		</g>
		<g>
			
				<image style="overflow:visible;" width="666" height="663" id="Vector_Smart_Object12__x28_Double_Click_to_Edit_x29__xA0_Image_2_" xlink:href="9652B6AB.png"  transform="matrix(0.2217 0 0 0.2217 365.8523 204.0534)">
			</image>
			
				<image style="overflow:visible;" width="666" height="663" id="Vector_Smart_Object11__x28_Double_Click_to_Edit_x29__xA0_Image_2_" xlink:href="9652B6A9.png"  transform="matrix(0.24 0 0 0.24 214.0751 181.834)">
			</image>
			
				<image style="overflow:visible;" width="671" height="662" id="Vector_Smart_Object9__x28_Double_Click_to_Edit_x29__xA0_Image_2_" xlink:href="9652B6AF.png"  transform="matrix(0.24 0 0 0.24 97.4351 453.274)">
			</image>
			<circle class="st11" cx="437.4" cy="270.5" r="59.1"/>
			<circle class="st12" cx="490.3" cy="484.7" r="15.3"/>
			
				<image style="overflow:visible;" width="669" height="645" id="Vector_Smart_Object6__x28_Double_Click_to_Edit_x29__xA0_Image_2_" xlink:href="9652B6A8.png"  transform="matrix(0.24 0 0 0.24 86.1551 206.074)">
			</image>
			<g id="Ellipse" class="st13">
				<g>
					
						<ellipse transform="matrix(1 -2.512561e-03 2.512561e-03 1 -0.9841 0.7693)" class="st14" cx="305.7" cy="392" rx="173.2" ry="173.2"/>
				</g>
			</g>
			<path class="st14" d="M109.7,631l5.4-21.8c0.3-1.2,1.7-1.6,2.6-0.8l16.2,15.1c0.9,0.8,0.6,2.3-0.6,2.7l-21.6,6.7
				C110.5,633.3,109.4,632.2,109.7,631z"/>
			<path class="st14" d="M81.8,658l5.4-21.5c0.3-1.2,1.8-1.7,2.7-0.8l16,14.9c0.9,0.9,0.6,2.4-0.6,2.8L83.9,660
				C82.7,660.4,81.5,659.2,81.8,658z"/>
			<polygon class="st15" points="173.7,524.3 178.8,524.3 178.8,532.3 186.8,532.3 186.8,537.3 178.8,537.3 178.8,545.3 
				173.7,545.3 173.7,537.4 165.7,537.4 165.7,532.3 173.7,532.2 			"/>
			<polygon class="st15" points="380.8,565.2 388.1,565.2 388.1,576.6 399.4,576.6 399.4,583.7 388.1,583.7 388.1,595 380.8,595 
				380.8,583.9 369.6,583.8 369.6,576.5 380.8,576.5 			"/>
			<polygon class="st15" points="97.4,352.3 104.7,352.3 104.7,363.7 115.9,363.7 115.9,370.8 104.7,370.8 104.7,382.1 97.4,382.1 
				97.4,371 86.2,370.9 86.2,363.6 97.4,363.6 			"/>
			<circle class="st14" cx="467.3" cy="534.8" r="21.8"/>
			<text transform="matrix(1 0 0 1 165.4616 420.6956)" class="st16 st17 st18">JUGAAD’19</text>
		</g>
		<g>
			<g>
				
					<image style="overflow:visible;" width="1890" height="799" xlink:href="9652B6A6.png"  transform="matrix(5.915809e-02 0 0 6.123232e-02 30.3123 29.7328)">
				</image>
			</g>
			<g>
				<g>
					
						<image style="overflow:visible;" width="200" height="218" xlink:href="9652B6A7.png"  transform="matrix(0.21 0 0 0.21 522.9644 29.3054)">
					</image>
				</g>
				<text transform="matrix(1 0 0 1 437.6758 45.0171)"><tspan x="0" y="0" class="st19 st20">VISVESVSVARAYA</tspan><tspan x="-100.7" y="11" class="st19 st20">NATIONAL INSTITUTE OF TECHNOLOGY</tspan><tspan x="39.3" y="22.1" class="st19 st20">NAGPUR.</tspan></text>
			</g>
		</g>
	</g>
</g>
<g id="jugaad_logo">
	<g>
		<defs>
			<rect id="SVGID_14_" x="615.3" y="0" width="595.3" height="841.9"/>
		</defs>
		<clipPath id="SVGID_13_">
			<use xlink:href="#SVGID_14_"  style="overflow:visible;"/>
		</clipPath>
		<path style="opacity:0.2;clip-path:url(#SVGID_13_);" d="M565,939.7c11.9-90.7,52.1-284.1,319.8-177s351-108.6,351-108.6v270.7
			L565,939.7z"/>
	</g>
</g>
<g id="jeff_x27_s_quote">
</g>
<g id="what_is_jugaad">
	<g>
		<defs>
			<rect id="SVGID_18_" x="615.3" y="861.9" width="595.3" height="841.9"/>
		</defs>
		<clipPath id="SVGID_15_">
			<use xlink:href="#SVGID_18_"  style="overflow:visible;"/>
		</clipPath>
		<g style="clip-path:url(#SVGID_15_);">
			
				<image style="overflow:visible;opacity:0.75;" width="2459" height="2433" xlink:href="9652B6B7.png"  transform="matrix(0.24 0 0 0.24 534.3364 607.0564)">
			</image>
			<g>
				<ellipse class="st30" cx="829.3" cy="898.9" rx="244" ry="240.6"/>
			</g>
		</g>
	</g>
</g>
<g id="particulars">
</g>
<g id="participation">
</g>
<g id="winners_2k18">
</g>
<g id="why_sponser_jugaad">
</g>
<g id="spons_avenue">
</g>
<g id="previous_spons">
</g>
<g id="contact">
</g>
</svg>
